<mxfile host="app.diagrams.net" modified="2024-05-07T16:06:11.802Z" agent="Mozilla/5.0 (Windows NT 10.0; Win64; x64) AppleWebKit/537.36 (KHTML, like Gecko) Chrome/124.0.0.0 Safari/537.36" etag="cMxydnBhSKdSqsa7U6C1" version="24.3.1" type="device">
  <diagram name="‫עמוד-1‬" id="TzBRaIEQAyytvSw9Mdv-">
    <mxGraphModel dx="2190" dy="1771" grid="1" gridSize="10" guides="1" tooltips="1" connect="1" arrows="1" fold="1" page="1" pageScale="1" pageWidth="827" pageHeight="1169" math="0" shadow="0">
      <root>
        <mxCell id="0" />
        <mxCell id="1" parent="0" />
        <mxCell id="pJkwpibmYWs6iMc-g0Pl-85" style="edgeStyle=orthogonalEdgeStyle;rounded=0;orthogonalLoop=1;jettySize=auto;html=1;exitX=0.5;exitY=0;exitDx=0;exitDy=0;endArrow=diamondThin;endFill=1;strokeWidth=1;endSize=11;" parent="1" source="pJkwpibmYWs6iMc-g0Pl-5" target="pJkwpibmYWs6iMc-g0Pl-17" edge="1">
          <mxGeometry relative="1" as="geometry" />
        </mxCell>
        <mxCell id="pJkwpibmYWs6iMc-g0Pl-5" value="Product" style="swimlane;fontStyle=1;align=center;verticalAlign=top;childLayout=stackLayout;horizontal=1;startSize=26;horizontalStack=0;resizeParent=1;resizeParentMax=0;resizeLast=0;collapsible=1;marginBottom=0;whiteSpace=wrap;html=1;" parent="1" vertex="1">
          <mxGeometry x="700" y="1260" width="350" height="320" as="geometry" />
        </mxCell>
        <mxCell id="pJkwpibmYWs6iMc-g0Pl-6" value="- productId: int" style="text;strokeColor=none;fillColor=none;align=left;verticalAlign=top;spacingLeft=4;spacingRight=4;overflow=hidden;rotatable=0;points=[[0,0.5],[1,0.5]];portConstraint=eastwest;whiteSpace=wrap;html=1;" parent="pJkwpibmYWs6iMc-g0Pl-5" vertex="1">
          <mxGeometry y="26" width="350" height="26" as="geometry" />
        </mxCell>
        <mxCell id="pJkwpibmYWs6iMc-g0Pl-9" value="- productName: String" style="text;strokeColor=none;fillColor=none;align=left;verticalAlign=top;spacingLeft=4;spacingRight=4;overflow=hidden;rotatable=0;points=[[0,0.5],[1,0.5]];portConstraint=eastwest;whiteSpace=wrap;html=1;" parent="pJkwpibmYWs6iMc-g0Pl-5" vertex="1">
          <mxGeometry y="52" width="350" height="26" as="geometry" />
        </mxCell>
        <mxCell id="pJkwpibmYWs6iMc-g0Pl-10" value="- storeId: int" style="text;strokeColor=none;fillColor=none;align=left;verticalAlign=top;spacingLeft=4;spacingRight=4;overflow=hidden;rotatable=0;points=[[0,0.5],[1,0.5]];portConstraint=eastwest;whiteSpace=wrap;html=1;" parent="pJkwpibmYWs6iMc-g0Pl-5" vertex="1">
          <mxGeometry y="78" width="350" height="26" as="geometry" />
        </mxCell>
        <mxCell id="pJkwpibmYWs6iMc-g0Pl-11" value="- category: String" style="text;strokeColor=none;fillColor=none;align=left;verticalAlign=top;spacingLeft=4;spacingRight=4;overflow=hidden;rotatable=0;points=[[0,0.5],[1,0.5]];portConstraint=eastwest;whiteSpace=wrap;html=1;" parent="pJkwpibmYWs6iMc-g0Pl-5" vertex="1">
          <mxGeometry y="104" width="350" height="26" as="geometry" />
        </mxCell>
        <mxCell id="pJkwpibmYWs6iMc-g0Pl-12" value="- price: double" style="text;strokeColor=none;fillColor=none;align=left;verticalAlign=top;spacingLeft=4;spacingRight=4;overflow=hidden;rotatable=0;points=[[0,0.5],[1,0.5]];portConstraint=eastwest;whiteSpace=wrap;html=1;" parent="pJkwpibmYWs6iMc-g0Pl-5" vertex="1">
          <mxGeometry y="130" width="350" height="26" as="geometry" />
        </mxCell>
        <mxCell id="pJkwpibmYWs6iMc-g0Pl-13" value="- discount: double" style="text;strokeColor=none;fillColor=none;align=left;verticalAlign=top;spacingLeft=4;spacingRight=4;overflow=hidden;rotatable=0;points=[[0,0.5],[1,0.5]];portConstraint=eastwest;whiteSpace=wrap;html=1;" parent="pJkwpibmYWs6iMc-g0Pl-5" vertex="1">
          <mxGeometry y="156" width="350" height="26" as="geometry" />
        </mxCell>
        <mxCell id="pJkwpibmYWs6iMc-g0Pl-7" value="" style="line;strokeWidth=1;fillColor=none;align=left;verticalAlign=middle;spacingTop=-1;spacingLeft=3;spacingRight=3;rotatable=0;labelPosition=right;points=[];portConstraint=eastwest;strokeColor=inherit;" parent="pJkwpibmYWs6iMc-g0Pl-5" vertex="1">
          <mxGeometry y="182" width="350" height="8" as="geometry" />
        </mxCell>
        <mxCell id="pJkwpibmYWs6iMc-g0Pl-8" value="+ getters and setters" style="text;strokeColor=none;fillColor=none;align=left;verticalAlign=top;spacingLeft=4;spacingRight=4;overflow=hidden;rotatable=0;points=[[0,0.5],[1,0.5]];portConstraint=eastwest;whiteSpace=wrap;html=1;" parent="pJkwpibmYWs6iMc-g0Pl-5" vertex="1">
          <mxGeometry y="190" width="350" height="26" as="geometry" />
        </mxCell>
        <mxCell id="pJkwpibmYWs6iMc-g0Pl-15" value="+ calculateTotalPrice(): double" style="text;strokeColor=none;fillColor=none;align=left;verticalAlign=top;spacingLeft=4;spacingRight=4;overflow=hidden;rotatable=0;points=[[0,0.5],[1,0.5]];portConstraint=eastwest;whiteSpace=wrap;html=1;" parent="pJkwpibmYWs6iMc-g0Pl-5" vertex="1">
          <mxGeometry y="216" width="350" height="26" as="geometry" />
        </mxCell>
        <mxCell id="pJkwpibmYWs6iMc-g0Pl-16" value="+ updateQuantity(): void" style="text;strokeColor=none;fillColor=none;align=left;verticalAlign=top;spacingLeft=4;spacingRight=4;overflow=hidden;rotatable=0;points=[[0,0.5],[1,0.5]];portConstraint=eastwest;whiteSpace=wrap;html=1;" parent="pJkwpibmYWs6iMc-g0Pl-5" vertex="1">
          <mxGeometry y="242" width="350" height="26" as="geometry" />
        </mxCell>
        <mxCell id="pJkwpibmYWs6iMc-g0Pl-37" value="+ isAvailable(): bool" style="text;strokeColor=none;fillColor=none;align=left;verticalAlign=top;spacingLeft=4;spacingRight=4;overflow=hidden;rotatable=0;points=[[0,0.5],[1,0.5]];portConstraint=eastwest;whiteSpace=wrap;html=1;" parent="pJkwpibmYWs6iMc-g0Pl-5" vertex="1">
          <mxGeometry y="268" width="350" height="26" as="geometry" />
        </mxCell>
        <mxCell id="pJkwpibmYWs6iMc-g0Pl-14" value="- quantity: int" style="text;strokeColor=none;fillColor=none;align=left;verticalAlign=top;spacingLeft=4;spacingRight=4;overflow=hidden;rotatable=0;points=[[0,0.5],[1,0.5]];portConstraint=eastwest;whiteSpace=wrap;html=1;" parent="pJkwpibmYWs6iMc-g0Pl-5" vertex="1">
          <mxGeometry y="294" width="350" height="26" as="geometry" />
        </mxCell>
        <mxCell id="pJkwpibmYWs6iMc-g0Pl-84" style="edgeStyle=orthogonalEdgeStyle;rounded=0;orthogonalLoop=1;jettySize=auto;html=1;exitX=0.5;exitY=0;exitDx=0;exitDy=0;endArrow=diamondThin;endFill=1;startSize=6;endSize=11;" parent="1" source="pJkwpibmYWs6iMc-g0Pl-17" target="pJkwpibmYWs6iMc-g0Pl-82" edge="1">
          <mxGeometry relative="1" as="geometry" />
        </mxCell>
        <mxCell id="pJkwpibmYWs6iMc-g0Pl-17" value="Strore" style="swimlane;fontStyle=1;align=center;verticalAlign=top;childLayout=stackLayout;horizontal=1;startSize=26;horizontalStack=0;resizeParent=1;resizeParentMax=0;resizeLast=0;collapsible=1;marginBottom=0;whiteSpace=wrap;html=1;" parent="1" vertex="1">
          <mxGeometry x="1110" y="1169" width="330" height="554" as="geometry" />
        </mxCell>
        <mxCell id="pJkwpibmYWs6iMc-g0Pl-18" value="- storeId: int" style="text;strokeColor=none;fillColor=none;align=left;verticalAlign=top;spacingLeft=4;spacingRight=4;overflow=hidden;rotatable=0;points=[[0,0.5],[1,0.5]];portConstraint=eastwest;whiteSpace=wrap;html=1;" parent="pJkwpibmYWs6iMc-g0Pl-17" vertex="1">
          <mxGeometry y="26" width="330" height="26" as="geometry" />
        </mxCell>
        <mxCell id="pJkwpibmYWs6iMc-g0Pl-19" value="- storeName: String" style="text;strokeColor=none;fillColor=none;align=left;verticalAlign=top;spacingLeft=4;spacingRight=4;overflow=hidden;rotatable=0;points=[[0,0.5],[1,0.5]];portConstraint=eastwest;whiteSpace=wrap;html=1;" parent="pJkwpibmYWs6iMc-g0Pl-17" vertex="1">
          <mxGeometry y="52" width="330" height="26" as="geometry" />
        </mxCell>
        <mxCell id="pJkwpibmYWs6iMc-g0Pl-20" value="- phoneNumber: String" style="text;strokeColor=none;fillColor=none;align=left;verticalAlign=top;spacingLeft=4;spacingRight=4;overflow=hidden;rotatable=0;points=[[0,0.5],[1,0.5]];portConstraint=eastwest;whiteSpace=wrap;html=1;" parent="pJkwpibmYWs6iMc-g0Pl-17" vertex="1">
          <mxGeometry y="78" width="330" height="26" as="geometry" />
        </mxCell>
        <mxCell id="pJkwpibmYWs6iMc-g0Pl-21" value="- email: String" style="text;strokeColor=none;fillColor=none;align=left;verticalAlign=top;spacingLeft=4;spacingRight=4;overflow=hidden;rotatable=0;points=[[0,0.5],[1,0.5]];portConstraint=eastwest;whiteSpace=wrap;html=1;" parent="pJkwpibmYWs6iMc-g0Pl-17" vertex="1">
          <mxGeometry y="104" width="330" height="26" as="geometry" />
        </mxCell>
        <mxCell id="pJkwpibmYWs6iMc-g0Pl-29" value="- isOpen: bool" style="text;strokeColor=none;fillColor=none;align=left;verticalAlign=top;spacingLeft=4;spacingRight=4;overflow=hidden;rotatable=0;points=[[0,0.5],[1,0.5]];portConstraint=eastwest;whiteSpace=wrap;html=1;" parent="pJkwpibmYWs6iMc-g0Pl-17" vertex="1">
          <mxGeometry y="130" width="330" height="26" as="geometry" />
        </mxCell>
        <mxCell id="dmk8mRthHvPTzcBqkzeC-1" value="-founder:int" style="text;strokeColor=none;fillColor=none;align=left;verticalAlign=top;spacingLeft=4;spacingRight=4;overflow=hidden;rotatable=0;points=[[0,0.5],[1,0.5]];portConstraint=eastwest;whiteSpace=wrap;html=1;" vertex="1" parent="pJkwpibmYWs6iMc-g0Pl-17">
          <mxGeometry y="156" width="330" height="26" as="geometry" />
        </mxCell>
        <mxCell id="dmk8mRthHvPTzcBqkzeC-22" value="-owners:int[]" style="text;strokeColor=none;fillColor=none;align=left;verticalAlign=top;spacingLeft=4;spacingRight=4;overflow=hidden;rotatable=0;points=[[0,0.5],[1,0.5]];portConstraint=eastwest;whiteSpace=wrap;html=1;" vertex="1" parent="pJkwpibmYWs6iMc-g0Pl-17">
          <mxGeometry y="182" width="330" height="26" as="geometry" />
        </mxCell>
        <mxCell id="dmk8mRthHvPTzcBqkzeC-23" value="-mangers:int[]" style="text;strokeColor=none;fillColor=none;align=left;verticalAlign=top;spacingLeft=4;spacingRight=4;overflow=hidden;rotatable=0;points=[[0,0.5],[1,0.5]];portConstraint=eastwest;whiteSpace=wrap;html=1;" vertex="1" parent="pJkwpibmYWs6iMc-g0Pl-17">
          <mxGeometry y="208" width="330" height="26" as="geometry" />
        </mxCell>
        <mxCell id="pJkwpibmYWs6iMc-g0Pl-25" value="" style="line;strokeWidth=1;fillColor=none;align=left;verticalAlign=middle;spacingTop=-1;spacingLeft=3;spacingRight=3;rotatable=0;labelPosition=right;points=[];portConstraint=eastwest;strokeColor=inherit;" parent="pJkwpibmYWs6iMc-g0Pl-17" vertex="1">
          <mxGeometry y="234" width="330" height="8" as="geometry" />
        </mxCell>
        <mxCell id="pJkwpibmYWs6iMc-g0Pl-26" value="+ getters and setters" style="text;strokeColor=none;fillColor=none;align=left;verticalAlign=top;spacingLeft=4;spacingRight=4;overflow=hidden;rotatable=0;points=[[0,0.5],[1,0.5]];portConstraint=eastwest;whiteSpace=wrap;html=1;" parent="pJkwpibmYWs6iMc-g0Pl-17" vertex="1">
          <mxGeometry y="242" width="330" height="26" as="geometry" />
        </mxCell>
        <mxCell id="pJkwpibmYWs6iMc-g0Pl-27" value="+ addProduct(): void" style="text;strokeColor=none;fillColor=none;align=left;verticalAlign=top;spacingLeft=4;spacingRight=4;overflow=hidden;rotatable=0;points=[[0,0.5],[1,0.5]];portConstraint=eastwest;whiteSpace=wrap;html=1;" parent="pJkwpibmYWs6iMc-g0Pl-17" vertex="1">
          <mxGeometry y="268" width="330" height="26" as="geometry" />
        </mxCell>
        <mxCell id="pJkwpibmYWs6iMc-g0Pl-28" value="+ removeProduct(): void" style="text;strokeColor=none;fillColor=none;align=left;verticalAlign=top;spacingLeft=4;spacingRight=4;overflow=hidden;rotatable=0;points=[[0,0.5],[1,0.5]];portConstraint=eastwest;whiteSpace=wrap;html=1;" parent="pJkwpibmYWs6iMc-g0Pl-17" vertex="1">
          <mxGeometry y="294" width="330" height="26" as="geometry" />
        </mxCell>
        <mxCell id="pJkwpibmYWs6iMc-g0Pl-30" value="+ openStore(): void" style="text;strokeColor=none;fillColor=none;align=left;verticalAlign=top;spacingLeft=4;spacingRight=4;overflow=hidden;rotatable=0;points=[[0,0.5],[1,0.5]];portConstraint=eastwest;whiteSpace=wrap;html=1;" parent="pJkwpibmYWs6iMc-g0Pl-17" vertex="1">
          <mxGeometry y="320" width="330" height="26" as="geometry" />
        </mxCell>
        <mxCell id="pJkwpibmYWs6iMc-g0Pl-31" value="+ closeStrore(): void" style="text;strokeColor=none;fillColor=none;align=left;verticalAlign=top;spacingLeft=4;spacingRight=4;overflow=hidden;rotatable=0;points=[[0,0.5],[1,0.5]];portConstraint=eastwest;whiteSpace=wrap;html=1;" parent="pJkwpibmYWs6iMc-g0Pl-17" vertex="1">
          <mxGeometry y="346" width="330" height="26" as="geometry" />
        </mxCell>
        <mxCell id="pJkwpibmYWs6iMc-g0Pl-32" value="+ updateProductPrice(): void" style="text;strokeColor=none;fillColor=none;align=left;verticalAlign=top;spacingLeft=4;spacingRight=4;overflow=hidden;rotatable=0;points=[[0,0.5],[1,0.5]];portConstraint=eastwest;whiteSpace=wrap;html=1;" parent="pJkwpibmYWs6iMc-g0Pl-17" vertex="1">
          <mxGeometry y="372" width="330" height="26" as="geometry" />
        </mxCell>
        <mxCell id="pJkwpibmYWs6iMc-g0Pl-33" value="+ updateProductDiscount(): void" style="text;strokeColor=none;fillColor=none;align=left;verticalAlign=top;spacingLeft=4;spacingRight=4;overflow=hidden;rotatable=0;points=[[0,0.5],[1,0.5]];portConstraint=eastwest;whiteSpace=wrap;html=1;" parent="pJkwpibmYWs6iMc-g0Pl-17" vertex="1">
          <mxGeometry y="398" width="330" height="26" as="geometry" />
        </mxCell>
        <mxCell id="pJkwpibmYWs6iMc-g0Pl-34" value="+ updateProductQuantity(): void" style="text;strokeColor=none;fillColor=none;align=left;verticalAlign=top;spacingLeft=4;spacingRight=4;overflow=hidden;rotatable=0;points=[[0,0.5],[1,0.5]];portConstraint=eastwest;whiteSpace=wrap;html=1;" parent="pJkwpibmYWs6iMc-g0Pl-17" vertex="1">
          <mxGeometry y="424" width="330" height="26" as="geometry" />
        </mxCell>
        <mxCell id="pJkwpibmYWs6iMc-g0Pl-35" value="+ purchaseCart(): bool" style="text;strokeColor=none;fillColor=none;align=left;verticalAlign=top;spacingLeft=4;spacingRight=4;overflow=hidden;rotatable=0;points=[[0,0.5],[1,0.5]];portConstraint=eastwest;whiteSpace=wrap;html=1;" parent="pJkwpibmYWs6iMc-g0Pl-17" vertex="1">
          <mxGeometry y="450" width="330" height="26" as="geometry" />
        </mxCell>
        <mxCell id="pJkwpibmYWs6iMc-g0Pl-36" value="+ checkCart(): bool" style="text;strokeColor=none;fillColor=none;align=left;verticalAlign=top;spacingLeft=4;spacingRight=4;overflow=hidden;rotatable=0;points=[[0,0.5],[1,0.5]];portConstraint=eastwest;whiteSpace=wrap;html=1;" parent="pJkwpibmYWs6iMc-g0Pl-17" vertex="1">
          <mxGeometry y="476" width="330" height="26" as="geometry" />
        </mxCell>
        <mxCell id="pJkwpibmYWs6iMc-g0Pl-60" value="+ addStaffMember(): void" style="text;strokeColor=none;fillColor=none;align=left;verticalAlign=top;spacingLeft=4;spacingRight=4;overflow=hidden;rotatable=0;points=[[0,0.5],[1,0.5]];portConstraint=eastwest;whiteSpace=wrap;html=1;" parent="pJkwpibmYWs6iMc-g0Pl-17" vertex="1">
          <mxGeometry y="502" width="330" height="26" as="geometry" />
        </mxCell>
        <mxCell id="pJkwpibmYWs6iMc-g0Pl-61" value="+ removeStaffMember(): void" style="text;strokeColor=none;fillColor=none;align=left;verticalAlign=top;spacingLeft=4;spacingRight=4;overflow=hidden;rotatable=0;points=[[0,0.5],[1,0.5]];portConstraint=eastwest;whiteSpace=wrap;html=1;" parent="pJkwpibmYWs6iMc-g0Pl-17" vertex="1">
          <mxGeometry y="528" width="330" height="26" as="geometry" />
        </mxCell>
        <mxCell id="pJkwpibmYWs6iMc-g0Pl-83" style="edgeStyle=orthogonalEdgeStyle;rounded=0;orthogonalLoop=1;jettySize=auto;html=1;exitX=0.5;exitY=0;exitDx=0;exitDy=0;dashed=1;dashPattern=8 8;endArrow=block;endFill=0;" parent="1" source="pJkwpibmYWs6iMc-g0Pl-82" target="dmk8mRthHvPTzcBqkzeC-71" edge="1">
          <mxGeometry relative="1" as="geometry">
            <mxPoint x="1257" y="778.0000000000005" as="targetPoint" />
            <Array as="points">
              <mxPoint x="1265" y="920" />
              <mxPoint x="1265" y="920" />
            </Array>
          </mxGeometry>
        </mxCell>
        <mxCell id="pJkwpibmYWs6iMc-g0Pl-82" value="&lt;p style=&quot;margin:0px;margin-top:4px;text-align:center;&quot;&gt;&lt;b&gt;MarketFacade&lt;/b&gt;&lt;/p&gt;&lt;hr size=&quot;1&quot; style=&quot;border-style:solid;&quot;&gt;&lt;div style=&quot;height:2px;&quot;&gt;&lt;/div&gt;" style="verticalAlign=top;align=left;overflow=fill;html=1;whiteSpace=wrap;" parent="1" vertex="1">
          <mxGeometry x="1100" y="1000" width="330" height="60" as="geometry" />
        </mxCell>
        <mxCell id="pJkwpibmYWs6iMc-g0Pl-86" value="&lt;div&gt;&lt;span style=&quot;font-weight: normal;&quot;&gt;&amp;lt;&amp;lt;abstract class&amp;gt;&amp;gt;&lt;/span&gt;&lt;/div&gt;Alert" style="swimlane;fontStyle=1;align=center;verticalAlign=top;childLayout=stackLayout;horizontal=1;startSize=40;horizontalStack=0;resizeParent=1;resizeParentMax=0;resizeLast=0;collapsible=1;marginBottom=0;whiteSpace=wrap;html=1;" parent="1" vertex="1">
          <mxGeometry x="1970" y="490" width="330" height="230" as="geometry" />
        </mxCell>
        <mxCell id="pJkwpibmYWs6iMc-g0Pl-87" value="- userIdDest: int" style="text;strokeColor=none;fillColor=none;align=left;verticalAlign=top;spacingLeft=4;spacingRight=4;overflow=hidden;rotatable=0;points=[[0,0.5],[1,0.5]];portConstraint=eastwest;whiteSpace=wrap;html=1;" parent="pJkwpibmYWs6iMc-g0Pl-86" vertex="1">
          <mxGeometry y="40" width="330" height="26" as="geometry" />
        </mxCell>
        <mxCell id="pJkwpibmYWs6iMc-g0Pl-92" value="- isSent: bool" style="text;strokeColor=none;fillColor=none;align=left;verticalAlign=top;spacingLeft=4;spacingRight=4;overflow=hidden;rotatable=0;points=[[0,0.5],[1,0.5]];portConstraint=eastwest;whiteSpace=wrap;html=1;" parent="pJkwpibmYWs6iMc-g0Pl-86" vertex="1">
          <mxGeometry y="66" width="330" height="26" as="geometry" />
        </mxCell>
        <mxCell id="pJkwpibmYWs6iMc-g0Pl-93" value="- isRead: bool" style="text;strokeColor=none;fillColor=none;align=left;verticalAlign=top;spacingLeft=4;spacingRight=4;overflow=hidden;rotatable=0;points=[[0,0.5],[1,0.5]];portConstraint=eastwest;whiteSpace=wrap;html=1;" parent="pJkwpibmYWs6iMc-g0Pl-86" vertex="1">
          <mxGeometry y="92" width="330" height="26" as="geometry" />
        </mxCell>
        <mxCell id="pJkwpibmYWs6iMc-g0Pl-88" value="" style="line;strokeWidth=1;fillColor=none;align=left;verticalAlign=middle;spacingTop=-1;spacingLeft=3;spacingRight=3;rotatable=0;labelPosition=right;points=[];portConstraint=eastwest;strokeColor=inherit;" parent="pJkwpibmYWs6iMc-g0Pl-86" vertex="1">
          <mxGeometry y="118" width="330" height="8" as="geometry" />
        </mxCell>
        <mxCell id="pJkwpibmYWs6iMc-g0Pl-89" value="+ sendMessageOnLine(): void" style="text;strokeColor=none;fillColor=none;align=left;verticalAlign=top;spacingLeft=4;spacingRight=4;overflow=hidden;rotatable=0;points=[[0,0.5],[1,0.5]];portConstraint=eastwest;whiteSpace=wrap;html=1;" parent="pJkwpibmYWs6iMc-g0Pl-86" vertex="1">
          <mxGeometry y="126" width="330" height="26" as="geometry" />
        </mxCell>
        <mxCell id="pJkwpibmYWs6iMc-g0Pl-90" value="+ sendMessageOffLine(): void" style="text;strokeColor=none;fillColor=none;align=left;verticalAlign=top;spacingLeft=4;spacingRight=4;overflow=hidden;rotatable=0;points=[[0,0.5],[1,0.5]];portConstraint=eastwest;whiteSpace=wrap;html=1;" parent="pJkwpibmYWs6iMc-g0Pl-86" vertex="1">
          <mxGeometry y="152" width="330" height="26" as="geometry" />
        </mxCell>
        <mxCell id="pJkwpibmYWs6iMc-g0Pl-91" value="+ sendMessageTrigger(): void" style="text;strokeColor=none;fillColor=none;align=left;verticalAlign=top;spacingLeft=4;spacingRight=4;overflow=hidden;rotatable=0;points=[[0,0.5],[1,0.5]];portConstraint=eastwest;whiteSpace=wrap;html=1;" parent="pJkwpibmYWs6iMc-g0Pl-86" vertex="1">
          <mxGeometry y="178" width="330" height="26" as="geometry" />
        </mxCell>
        <mxCell id="pJkwpibmYWs6iMc-g0Pl-102" value="+ makeMessage(): void" style="text;strokeColor=none;fillColor=none;align=left;verticalAlign=top;spacingLeft=4;spacingRight=4;overflow=hidden;rotatable=0;points=[[0,0.5],[1,0.5]];portConstraint=eastwest;whiteSpace=wrap;html=1;" parent="pJkwpibmYWs6iMc-g0Pl-86" vertex="1">
          <mxGeometry y="204" width="330" height="26" as="geometry" />
        </mxCell>
        <mxCell id="pJkwpibmYWs6iMc-g0Pl-109" style="edgeStyle=orthogonalEdgeStyle;rounded=0;orthogonalLoop=1;jettySize=auto;html=1;exitX=0.5;exitY=0;exitDx=0;exitDy=0;" parent="1" source="pJkwpibmYWs6iMc-g0Pl-94" target="pJkwpibmYWs6iMc-g0Pl-86" edge="1">
          <mxGeometry relative="1" as="geometry" />
        </mxCell>
        <mxCell id="pJkwpibmYWs6iMc-g0Pl-94" value="&lt;div&gt;&lt;span style=&quot;background-color: initial;&quot;&gt;StoreSourceAlert&lt;/span&gt;&lt;br&gt;&lt;/div&gt;" style="swimlane;fontStyle=1;align=center;verticalAlign=top;childLayout=stackLayout;horizontal=1;startSize=30;horizontalStack=0;resizeParent=1;resizeParentMax=0;resizeLast=0;collapsible=1;marginBottom=0;whiteSpace=wrap;html=1;" parent="1" vertex="1">
          <mxGeometry x="1750" y="810" width="330" height="90" as="geometry" />
        </mxCell>
        <mxCell id="pJkwpibmYWs6iMc-g0Pl-95" value="- stroeIdSource: int" style="text;strokeColor=none;fillColor=none;align=left;verticalAlign=top;spacingLeft=4;spacingRight=4;overflow=hidden;rotatable=0;points=[[0,0.5],[1,0.5]];portConstraint=eastwest;whiteSpace=wrap;html=1;" parent="pJkwpibmYWs6iMc-g0Pl-94" vertex="1">
          <mxGeometry y="30" width="330" height="26" as="geometry" />
        </mxCell>
        <mxCell id="pJkwpibmYWs6iMc-g0Pl-98" value="" style="line;strokeWidth=1;fillColor=none;align=left;verticalAlign=middle;spacingTop=-1;spacingLeft=3;spacingRight=3;rotatable=0;labelPosition=right;points=[];portConstraint=eastwest;strokeColor=inherit;" parent="pJkwpibmYWs6iMc-g0Pl-94" vertex="1">
          <mxGeometry y="56" width="330" height="8" as="geometry" />
        </mxCell>
        <mxCell id="pJkwpibmYWs6iMc-g0Pl-103" value="+ makeMessage(): void" style="text;strokeColor=none;fillColor=none;align=left;verticalAlign=top;spacingLeft=4;spacingRight=4;overflow=hidden;rotatable=0;points=[[0,0.5],[1,0.5]];portConstraint=eastwest;whiteSpace=wrap;html=1;" parent="pJkwpibmYWs6iMc-g0Pl-94" vertex="1">
          <mxGeometry y="64" width="330" height="26" as="geometry" />
        </mxCell>
        <mxCell id="pJkwpibmYWs6iMc-g0Pl-108" style="edgeStyle=orthogonalEdgeStyle;rounded=0;orthogonalLoop=1;jettySize=auto;html=1;exitX=0.5;exitY=0;exitDx=0;exitDy=0;" parent="1" source="pJkwpibmYWs6iMc-g0Pl-104" target="pJkwpibmYWs6iMc-g0Pl-86" edge="1">
          <mxGeometry relative="1" as="geometry" />
        </mxCell>
        <mxCell id="pJkwpibmYWs6iMc-g0Pl-104" value="&lt;div&gt;&lt;span style=&quot;background-color: initial;&quot;&gt;PrivateSourceAlert&lt;/span&gt;&lt;br&gt;&lt;/div&gt;" style="swimlane;fontStyle=1;align=center;verticalAlign=top;childLayout=stackLayout;horizontal=1;startSize=30;horizontalStack=0;resizeParent=1;resizeParentMax=0;resizeLast=0;collapsible=1;marginBottom=0;whiteSpace=wrap;html=1;" parent="1" vertex="1">
          <mxGeometry x="2120" y="810" width="330" height="90" as="geometry" />
        </mxCell>
        <mxCell id="pJkwpibmYWs6iMc-g0Pl-105" value="- stroeIdSource: int" style="text;strokeColor=none;fillColor=none;align=left;verticalAlign=top;spacingLeft=4;spacingRight=4;overflow=hidden;rotatable=0;points=[[0,0.5],[1,0.5]];portConstraint=eastwest;whiteSpace=wrap;html=1;" parent="pJkwpibmYWs6iMc-g0Pl-104" vertex="1">
          <mxGeometry y="30" width="330" height="26" as="geometry" />
        </mxCell>
        <mxCell id="pJkwpibmYWs6iMc-g0Pl-106" value="" style="line;strokeWidth=1;fillColor=none;align=left;verticalAlign=middle;spacingTop=-1;spacingLeft=3;spacingRight=3;rotatable=0;labelPosition=right;points=[];portConstraint=eastwest;strokeColor=inherit;" parent="pJkwpibmYWs6iMc-g0Pl-104" vertex="1">
          <mxGeometry y="56" width="330" height="8" as="geometry" />
        </mxCell>
        <mxCell id="pJkwpibmYWs6iMc-g0Pl-107" value="+ makeMessage(): void" style="text;strokeColor=none;fillColor=none;align=left;verticalAlign=top;spacingLeft=4;spacingRight=4;overflow=hidden;rotatable=0;points=[[0,0.5],[1,0.5]];portConstraint=eastwest;whiteSpace=wrap;html=1;" parent="pJkwpibmYWs6iMc-g0Pl-104" vertex="1">
          <mxGeometry y="64" width="330" height="26" as="geometry" />
        </mxCell>
        <mxCell id="FDom4B-1fI0kme8VLFCk-1" value="&lt;span style=&quot;font-weight: 400;&quot;&gt;SupplyManager&lt;/span&gt;&lt;div&gt;&lt;/div&gt;" style="swimlane;fontStyle=1;align=center;verticalAlign=top;childLayout=stackLayout;horizontal=1;startSize=40;horizontalStack=0;resizeParent=1;resizeParentMax=0;resizeLast=0;collapsible=1;marginBottom=0;whiteSpace=wrap;html=1;" parent="1" vertex="1">
          <mxGeometry x="-225" y="562" width="330" height="230" as="geometry" />
        </mxCell>
        <mxCell id="FDom4B-1fI0kme8VLFCk-2" value="- systemToken" style="text;strokeColor=none;fillColor=none;align=left;verticalAlign=top;spacingLeft=4;spacingRight=4;overflow=hidden;rotatable=0;points=[[0,0.5],[1,0.5]];portConstraint=eastwest;whiteSpace=wrap;html=1;" parent="FDom4B-1fI0kme8VLFCk-1" vertex="1">
          <mxGeometry y="40" width="330" height="26" as="geometry" />
        </mxCell>
        <mxCell id="FDom4B-1fI0kme8VLFCk-5" value="" style="line;strokeWidth=1;fillColor=none;align=left;verticalAlign=middle;spacingTop=-1;spacingLeft=3;spacingRight=3;rotatable=0;labelPosition=right;points=[];portConstraint=eastwest;strokeColor=inherit;" parent="FDom4B-1fI0kme8VLFCk-1" vertex="1">
          <mxGeometry y="66" width="330" height="8" as="geometry" />
        </mxCell>
        <mxCell id="FDom4B-1fI0kme8VLFCk-6" value="+ connect(): bool" style="text;strokeColor=none;fillColor=none;align=left;verticalAlign=top;spacingLeft=4;spacingRight=4;overflow=hidden;rotatable=0;points=[[0,0.5],[1,0.5]];portConstraint=eastwest;whiteSpace=wrap;html=1;" parent="FDom4B-1fI0kme8VLFCk-1" vertex="1">
          <mxGeometry y="74" width="330" height="26" as="geometry" />
        </mxCell>
        <mxCell id="FDom4B-1fI0kme8VLFCk-7" value="+ dissconnect(): bool" style="text;strokeColor=none;fillColor=none;align=left;verticalAlign=top;spacingLeft=4;spacingRight=4;overflow=hidden;rotatable=0;points=[[0,0.5],[1,0.5]];portConstraint=eastwest;whiteSpace=wrap;html=1;" parent="FDom4B-1fI0kme8VLFCk-1" vertex="1">
          <mxGeometry y="100" width="330" height="26" as="geometry" />
        </mxCell>
        <mxCell id="FDom4B-1fI0kme8VLFCk-8" value="+ createDelivery(): bool" style="text;strokeColor=none;fillColor=none;align=left;verticalAlign=top;spacingLeft=4;spacingRight=4;overflow=hidden;rotatable=0;points=[[0,0.5],[1,0.5]];portConstraint=eastwest;whiteSpace=wrap;html=1;" parent="FDom4B-1fI0kme8VLFCk-1" vertex="1">
          <mxGeometry y="126" width="330" height="26" as="geometry" />
        </mxCell>
        <mxCell id="FDom4B-1fI0kme8VLFCk-9" value="+ cancleDelivery(): bool" style="text;strokeColor=none;fillColor=none;align=left;verticalAlign=top;spacingLeft=4;spacingRight=4;overflow=hidden;rotatable=0;points=[[0,0.5],[1,0.5]];portConstraint=eastwest;whiteSpace=wrap;html=1;" parent="FDom4B-1fI0kme8VLFCk-1" vertex="1">
          <mxGeometry y="152" width="330" height="26" as="geometry" />
        </mxCell>
        <mxCell id="FDom4B-1fI0kme8VLFCk-51" value="+ updateDeliveryStatus(): void" style="text;strokeColor=none;fillColor=none;align=left;verticalAlign=top;spacingLeft=4;spacingRight=4;overflow=hidden;rotatable=0;points=[[0,0.5],[1,0.5]];portConstraint=eastwest;whiteSpace=wrap;html=1;" parent="FDom4B-1fI0kme8VLFCk-1" vertex="1">
          <mxGeometry y="178" width="330" height="26" as="geometry" />
        </mxCell>
        <mxCell id="FDom4B-1fI0kme8VLFCk-60" value="+ updateDeliveryDetails(): void" style="text;strokeColor=none;fillColor=none;align=left;verticalAlign=top;spacingLeft=4;spacingRight=4;overflow=hidden;rotatable=0;points=[[0,0.5],[1,0.5]];portConstraint=eastwest;whiteSpace=wrap;html=1;" parent="FDom4B-1fI0kme8VLFCk-1" vertex="1">
          <mxGeometry y="204" width="330" height="26" as="geometry" />
        </mxCell>
        <mxCell id="FDom4B-1fI0kme8VLFCk-13" value="&lt;span style=&quot;font-weight: 400;&quot;&gt;Delivery&lt;/span&gt;&lt;div&gt;&lt;/div&gt;" style="swimlane;fontStyle=1;align=center;verticalAlign=top;childLayout=stackLayout;horizontal=1;startSize=40;horizontalStack=0;resizeParent=1;resizeParentMax=0;resizeLast=0;collapsible=1;marginBottom=0;whiteSpace=wrap;html=1;" parent="1" vertex="1">
          <mxGeometry x="-225" y="868" width="330" height="204" as="geometry" />
        </mxCell>
        <mxCell id="FDom4B-1fI0kme8VLFCk-35" value="-&amp;nbsp; address" style="text;strokeColor=none;fillColor=none;align=left;verticalAlign=top;spacingLeft=4;spacingRight=4;overflow=hidden;rotatable=0;points=[[0,0.5],[1,0.5]];portConstraint=eastwest;whiteSpace=wrap;html=1;" parent="FDom4B-1fI0kme8VLFCk-13" vertex="1">
          <mxGeometry y="40" width="330" height="26" as="geometry" />
        </mxCell>
        <mxCell id="FDom4B-1fI0kme8VLFCk-21" value="- orderId: int" style="text;strokeColor=none;fillColor=none;align=left;verticalAlign=top;spacingLeft=4;spacingRight=4;overflow=hidden;rotatable=0;points=[[0,0.5],[1,0.5]];portConstraint=eastwest;whiteSpace=wrap;html=1;" parent="FDom4B-1fI0kme8VLFCk-13" vertex="1">
          <mxGeometry y="66" width="330" height="26" as="geometry" />
        </mxCell>
        <mxCell id="FDom4B-1fI0kme8VLFCk-24" value="- status: enum" style="text;strokeColor=none;fillColor=none;align=left;verticalAlign=top;spacingLeft=4;spacingRight=4;overflow=hidden;rotatable=0;points=[[0,0.5],[1,0.5]];portConstraint=eastwest;whiteSpace=wrap;html=1;" parent="FDom4B-1fI0kme8VLFCk-13" vertex="1">
          <mxGeometry y="92" width="330" height="26" as="geometry" />
        </mxCell>
        <mxCell id="FDom4B-1fI0kme8VLFCk-61" value="- creationDate: dateTime" style="text;strokeColor=none;fillColor=none;align=left;verticalAlign=top;spacingLeft=4;spacingRight=4;overflow=hidden;rotatable=0;points=[[0,0.5],[1,0.5]];portConstraint=eastwest;whiteSpace=wrap;html=1;" parent="FDom4B-1fI0kme8VLFCk-13" vertex="1">
          <mxGeometry y="118" width="330" height="26" as="geometry" />
        </mxCell>
        <mxCell id="FDom4B-1fI0kme8VLFCk-62" value="- arrivalDate: dateTime" style="text;strokeColor=none;fillColor=none;align=left;verticalAlign=top;spacingLeft=4;spacingRight=4;overflow=hidden;rotatable=0;points=[[0,0.5],[1,0.5]];portConstraint=eastwest;whiteSpace=wrap;html=1;" parent="FDom4B-1fI0kme8VLFCk-13" vertex="1">
          <mxGeometry y="144" width="330" height="26" as="geometry" />
        </mxCell>
        <mxCell id="FDom4B-1fI0kme8VLFCk-15" value="" style="line;strokeWidth=1;fillColor=none;align=left;verticalAlign=middle;spacingTop=-1;spacingLeft=3;spacingRight=3;rotatable=0;labelPosition=right;points=[];portConstraint=eastwest;strokeColor=inherit;" parent="FDom4B-1fI0kme8VLFCk-13" vertex="1">
          <mxGeometry y="170" width="330" height="8" as="geometry" />
        </mxCell>
        <mxCell id="FDom4B-1fI0kme8VLFCk-19" value="+ updateStatus(): bool" style="text;strokeColor=none;fillColor=none;align=left;verticalAlign=top;spacingLeft=4;spacingRight=4;overflow=hidden;rotatable=0;points=[[0,0.5],[1,0.5]];portConstraint=eastwest;whiteSpace=wrap;html=1;" parent="FDom4B-1fI0kme8VLFCk-13" vertex="1">
          <mxGeometry y="178" width="330" height="26" as="geometry" />
        </mxCell>
        <mxCell id="FDom4B-1fI0kme8VLFCk-36" value="&lt;span style=&quot;font-weight: 400;&quot;&gt;Payment&lt;/span&gt;&lt;span style=&quot;font-weight: 400;&quot;&gt;Manager&lt;/span&gt;&lt;div&gt;&lt;/div&gt;" style="swimlane;fontStyle=1;align=center;verticalAlign=top;childLayout=stackLayout;horizontal=1;startSize=40;horizontalStack=0;resizeParent=1;resizeParentMax=0;resizeLast=0;collapsible=1;marginBottom=0;whiteSpace=wrap;html=1;" parent="1" vertex="1">
          <mxGeometry x="196" y="562" width="330" height="204" as="geometry" />
        </mxCell>
        <mxCell id="FDom4B-1fI0kme8VLFCk-37" value="- systemToken" style="text;strokeColor=none;fillColor=none;align=left;verticalAlign=top;spacingLeft=4;spacingRight=4;overflow=hidden;rotatable=0;points=[[0,0.5],[1,0.5]];portConstraint=eastwest;whiteSpace=wrap;html=1;" parent="FDom4B-1fI0kme8VLFCk-36" vertex="1">
          <mxGeometry y="40" width="330" height="26" as="geometry" />
        </mxCell>
        <mxCell id="FDom4B-1fI0kme8VLFCk-38" value="" style="line;strokeWidth=1;fillColor=none;align=left;verticalAlign=middle;spacingTop=-1;spacingLeft=3;spacingRight=3;rotatable=0;labelPosition=right;points=[];portConstraint=eastwest;strokeColor=inherit;" parent="FDom4B-1fI0kme8VLFCk-36" vertex="1">
          <mxGeometry y="66" width="330" height="8" as="geometry" />
        </mxCell>
        <mxCell id="FDom4B-1fI0kme8VLFCk-39" value="+ connect(): bool" style="text;strokeColor=none;fillColor=none;align=left;verticalAlign=top;spacingLeft=4;spacingRight=4;overflow=hidden;rotatable=0;points=[[0,0.5],[1,0.5]];portConstraint=eastwest;whiteSpace=wrap;html=1;" parent="FDom4B-1fI0kme8VLFCk-36" vertex="1">
          <mxGeometry y="74" width="330" height="26" as="geometry" />
        </mxCell>
        <mxCell id="FDom4B-1fI0kme8VLFCk-40" value="+ dissconnect(): bool" style="text;strokeColor=none;fillColor=none;align=left;verticalAlign=top;spacingLeft=4;spacingRight=4;overflow=hidden;rotatable=0;points=[[0,0.5],[1,0.5]];portConstraint=eastwest;whiteSpace=wrap;html=1;" parent="FDom4B-1fI0kme8VLFCk-36" vertex="1">
          <mxGeometry y="100" width="330" height="26" as="geometry" />
        </mxCell>
        <mxCell id="FDom4B-1fI0kme8VLFCk-41" value="+ makePayment(): bool" style="text;strokeColor=none;fillColor=none;align=left;verticalAlign=top;spacingLeft=4;spacingRight=4;overflow=hidden;rotatable=0;points=[[0,0.5],[1,0.5]];portConstraint=eastwest;whiteSpace=wrap;html=1;" parent="FDom4B-1fI0kme8VLFCk-36" vertex="1">
          <mxGeometry y="126" width="330" height="26" as="geometry" />
        </mxCell>
        <mxCell id="FDom4B-1fI0kme8VLFCk-42" value="+ canclePayment(): bool" style="text;strokeColor=none;fillColor=none;align=left;verticalAlign=top;spacingLeft=4;spacingRight=4;overflow=hidden;rotatable=0;points=[[0,0.5],[1,0.5]];portConstraint=eastwest;whiteSpace=wrap;html=1;" parent="FDom4B-1fI0kme8VLFCk-36" vertex="1">
          <mxGeometry y="152" width="330" height="26" as="geometry" />
        </mxCell>
        <mxCell id="FDom4B-1fI0kme8VLFCk-63" value="+ refund(): bool" style="text;strokeColor=none;fillColor=none;align=left;verticalAlign=top;spacingLeft=4;spacingRight=4;overflow=hidden;rotatable=0;points=[[0,0.5],[1,0.5]];portConstraint=eastwest;whiteSpace=wrap;html=1;" parent="FDom4B-1fI0kme8VLFCk-36" vertex="1">
          <mxGeometry y="178" width="330" height="26" as="geometry" />
        </mxCell>
        <mxCell id="FDom4B-1fI0kme8VLFCk-95" style="edgeStyle=orthogonalEdgeStyle;rounded=0;orthogonalLoop=1;jettySize=auto;html=1;exitX=0.476;exitY=0.002;exitDx=0;exitDy=0;endArrow=diamondThin;endFill=1;strokeWidth=1;endSize=11;exitPerimeter=0;entryX=0.44;entryY=0.973;entryDx=0;entryDy=0;entryPerimeter=0;" parent="FDom4B-1fI0kme8VLFCk-36" source="FDom4B-1fI0kme8VLFCk-43" edge="1">
          <mxGeometry relative="1" as="geometry">
            <mxPoint x="157" y="281" as="sourcePoint" />
            <mxPoint x="157" y="204" as="targetPoint" />
          </mxGeometry>
        </mxCell>
        <mxCell id="FDom4B-1fI0kme8VLFCk-43" value="&lt;span style=&quot;font-weight: 400;&quot;&gt;Transaction&lt;/span&gt;&lt;div&gt;&lt;/div&gt;" style="swimlane;fontStyle=1;align=center;verticalAlign=top;childLayout=stackLayout;horizontal=1;startSize=40;horizontalStack=0;resizeParent=1;resizeParentMax=0;resizeLast=0;collapsible=1;marginBottom=0;whiteSpace=wrap;html=1;" parent="1" vertex="1">
          <mxGeometry x="196" y="848" width="330" height="204" as="geometry" />
        </mxCell>
        <mxCell id="FDom4B-1fI0kme8VLFCk-45" value="- billingAddress" style="text;strokeColor=none;fillColor=none;align=left;verticalAlign=top;spacingLeft=4;spacingRight=4;overflow=hidden;rotatable=0;points=[[0,0.5],[1,0.5]];portConstraint=eastwest;whiteSpace=wrap;html=1;" parent="FDom4B-1fI0kme8VLFCk-43" vertex="1">
          <mxGeometry y="40" width="330" height="26" as="geometry" />
        </mxCell>
        <mxCell id="FDom4B-1fI0kme8VLFCk-91" value="- paymentMethod:enum" style="text;strokeColor=none;fillColor=none;align=left;verticalAlign=top;spacingLeft=4;spacingRight=4;overflow=hidden;rotatable=0;points=[[0,0.5],[1,0.5]];portConstraint=eastwest;whiteSpace=wrap;html=1;" parent="FDom4B-1fI0kme8VLFCk-43" vertex="1">
          <mxGeometry y="66" width="330" height="26" as="geometry" />
        </mxCell>
        <mxCell id="FDom4B-1fI0kme8VLFCk-92" value="- numOfPayments: int" style="text;strokeColor=none;fillColor=none;align=left;verticalAlign=top;spacingLeft=4;spacingRight=4;overflow=hidden;rotatable=0;points=[[0,0.5],[1,0.5]];portConstraint=eastwest;whiteSpace=wrap;html=1;" parent="FDom4B-1fI0kme8VLFCk-43" vertex="1">
          <mxGeometry y="92" width="330" height="26" as="geometry" />
        </mxCell>
        <mxCell id="FDom4B-1fI0kme8VLFCk-46" value="- orderId: int" style="text;strokeColor=none;fillColor=none;align=left;verticalAlign=top;spacingLeft=4;spacingRight=4;overflow=hidden;rotatable=0;points=[[0,0.5],[1,0.5]];portConstraint=eastwest;whiteSpace=wrap;html=1;" parent="FDom4B-1fI0kme8VLFCk-43" vertex="1">
          <mxGeometry y="118" width="330" height="26" as="geometry" />
        </mxCell>
        <mxCell id="FDom4B-1fI0kme8VLFCk-48" value="- status: enum" style="text;strokeColor=none;fillColor=none;align=left;verticalAlign=top;spacingLeft=4;spacingRight=4;overflow=hidden;rotatable=0;points=[[0,0.5],[1,0.5]];portConstraint=eastwest;whiteSpace=wrap;html=1;" parent="FDom4B-1fI0kme8VLFCk-43" vertex="1">
          <mxGeometry y="144" width="330" height="26" as="geometry" />
        </mxCell>
        <mxCell id="FDom4B-1fI0kme8VLFCk-49" value="" style="line;strokeWidth=1;fillColor=none;align=left;verticalAlign=middle;spacingTop=-1;spacingLeft=3;spacingRight=3;rotatable=0;labelPosition=right;points=[];portConstraint=eastwest;strokeColor=inherit;" parent="FDom4B-1fI0kme8VLFCk-43" vertex="1">
          <mxGeometry y="170" width="330" height="8" as="geometry" />
        </mxCell>
        <mxCell id="FDom4B-1fI0kme8VLFCk-50" value="+ updateStatus(): bool" style="text;strokeColor=none;fillColor=none;align=left;verticalAlign=top;spacingLeft=4;spacingRight=4;overflow=hidden;rotatable=0;points=[[0,0.5],[1,0.5]];portConstraint=eastwest;whiteSpace=wrap;html=1;" parent="FDom4B-1fI0kme8VLFCk-43" vertex="1">
          <mxGeometry y="178" width="330" height="26" as="geometry" />
        </mxCell>
        <mxCell id="FDom4B-1fI0kme8VLFCk-79" value="&lt;span style=&quot;font-weight: 400;&quot;&gt;Order&lt;/span&gt;&lt;div&gt;&lt;/div&gt;" style="swimlane;fontStyle=1;align=center;verticalAlign=top;childLayout=stackLayout;horizontal=1;startSize=40;horizontalStack=0;resizeParent=1;resizeParentMax=0;resizeLast=0;collapsible=1;marginBottom=0;whiteSpace=wrap;html=1;" parent="1" vertex="1">
          <mxGeometry x="660" y="904" width="330" height="204" as="geometry" />
        </mxCell>
        <mxCell id="FDom4B-1fI0kme8VLFCk-80" value="- userId: int" style="text;strokeColor=none;fillColor=none;align=left;verticalAlign=top;spacingLeft=4;spacingRight=4;overflow=hidden;rotatable=0;points=[[0,0.5],[1,0.5]];portConstraint=eastwest;whiteSpace=wrap;html=1;" parent="FDom4B-1fI0kme8VLFCk-79" vertex="1">
          <mxGeometry y="40" width="330" height="26" as="geometry" />
        </mxCell>
        <mxCell id="FDom4B-1fI0kme8VLFCk-82" value="- orderId: int" style="text;strokeColor=none;fillColor=none;align=left;verticalAlign=top;spacingLeft=4;spacingRight=4;overflow=hidden;rotatable=0;points=[[0,0.5],[1,0.5]];portConstraint=eastwest;whiteSpace=wrap;html=1;" parent="FDom4B-1fI0kme8VLFCk-79" vertex="1">
          <mxGeometry y="66" width="330" height="26" as="geometry" />
        </mxCell>
        <mxCell id="FDom4B-1fI0kme8VLFCk-83" value="- storeId: int" style="text;strokeColor=none;fillColor=none;align=left;verticalAlign=top;spacingLeft=4;spacingRight=4;overflow=hidden;rotatable=0;points=[[0,0.5],[1,0.5]];portConstraint=eastwest;whiteSpace=wrap;html=1;" parent="FDom4B-1fI0kme8VLFCk-79" vertex="1">
          <mxGeometry y="92" width="330" height="26" as="geometry" />
        </mxCell>
        <mxCell id="FDom4B-1fI0kme8VLFCk-84" value="- status: enum" style="text;strokeColor=none;fillColor=none;align=left;verticalAlign=top;spacingLeft=4;spacingRight=4;overflow=hidden;rotatable=0;points=[[0,0.5],[1,0.5]];portConstraint=eastwest;whiteSpace=wrap;html=1;" parent="FDom4B-1fI0kme8VLFCk-79" vertex="1">
          <mxGeometry y="118" width="330" height="26" as="geometry" />
        </mxCell>
        <mxCell id="FDom4B-1fI0kme8VLFCk-93" value="- totalPrice: double" style="text;strokeColor=none;fillColor=none;align=left;verticalAlign=top;spacingLeft=4;spacingRight=4;overflow=hidden;rotatable=0;points=[[0,0.5],[1,0.5]];portConstraint=eastwest;whiteSpace=wrap;html=1;" parent="FDom4B-1fI0kme8VLFCk-79" vertex="1">
          <mxGeometry y="144" width="330" height="26" as="geometry" />
        </mxCell>
        <mxCell id="FDom4B-1fI0kme8VLFCk-86" value="" style="line;strokeWidth=1;fillColor=none;align=left;verticalAlign=middle;spacingTop=-1;spacingLeft=3;spacingRight=3;rotatable=0;labelPosition=right;points=[];portConstraint=eastwest;strokeColor=inherit;" parent="FDom4B-1fI0kme8VLFCk-79" vertex="1">
          <mxGeometry y="170" width="330" height="8" as="geometry" />
        </mxCell>
        <mxCell id="FDom4B-1fI0kme8VLFCk-87" value="+ updateStatus(): bool" style="text;strokeColor=none;fillColor=none;align=left;verticalAlign=top;spacingLeft=4;spacingRight=4;overflow=hidden;rotatable=0;points=[[0,0.5],[1,0.5]];portConstraint=eastwest;whiteSpace=wrap;html=1;" parent="FDom4B-1fI0kme8VLFCk-79" vertex="1">
          <mxGeometry y="178" width="330" height="26" as="geometry" />
        </mxCell>
        <mxCell id="FDom4B-1fI0kme8VLFCk-94" style="edgeStyle=orthogonalEdgeStyle;rounded=0;orthogonalLoop=1;jettySize=auto;html=1;exitX=0.439;exitY=0;exitDx=0;exitDy=0;endArrow=diamondThin;endFill=1;strokeWidth=1;endSize=11;exitPerimeter=0;entryX=0.44;entryY=0.973;entryDx=0;entryDy=0;entryPerimeter=0;" parent="1" source="FDom4B-1fI0kme8VLFCk-13" target="FDom4B-1fI0kme8VLFCk-60" edge="1">
          <mxGeometry relative="1" as="geometry">
            <mxPoint x="-344" y="819" as="sourcePoint" />
            <mxPoint x="-79" y="792" as="targetPoint" />
          </mxGeometry>
        </mxCell>
        <mxCell id="FDom4B-1fI0kme8VLFCk-118" value="&lt;span style=&quot;font-weight: normal;&quot;&gt;&amp;lt;&amp;lt;interface&amp;gt;&amp;gt;&lt;/span&gt;&lt;div&gt;IAlertService&lt;/div&gt;" style="swimlane;fontStyle=1;align=center;verticalAlign=top;childLayout=stackLayout;horizontal=1;startSize=40;horizontalStack=0;resizeParent=1;resizeParentMax=0;resizeLast=0;collapsible=1;marginBottom=0;whiteSpace=wrap;html=1;" parent="1" vertex="1">
          <mxGeometry x="1350" y="-476" width="330" height="152" as="geometry" />
        </mxCell>
        <mxCell id="FDom4B-1fI0kme8VLFCk-119" value="" style="line;strokeWidth=1;fillColor=none;align=left;verticalAlign=middle;spacingTop=-1;spacingLeft=3;spacingRight=3;rotatable=0;labelPosition=right;points=[];portConstraint=eastwest;strokeColor=inherit;" parent="FDom4B-1fI0kme8VLFCk-118" vertex="1">
          <mxGeometry y="40" width="330" height="8" as="geometry" />
        </mxCell>
        <mxCell id="FDom4B-1fI0kme8VLFCk-120" value="+ sendMessageOnLine(): void" style="text;strokeColor=none;fillColor=none;align=left;verticalAlign=top;spacingLeft=4;spacingRight=4;overflow=hidden;rotatable=0;points=[[0,0.5],[1,0.5]];portConstraint=eastwest;whiteSpace=wrap;html=1;" parent="FDom4B-1fI0kme8VLFCk-118" vertex="1">
          <mxGeometry y="48" width="330" height="26" as="geometry" />
        </mxCell>
        <mxCell id="FDom4B-1fI0kme8VLFCk-121" value="+ sendMessageOffLine(): void" style="text;strokeColor=none;fillColor=none;align=left;verticalAlign=top;spacingLeft=4;spacingRight=4;overflow=hidden;rotatable=0;points=[[0,0.5],[1,0.5]];portConstraint=eastwest;whiteSpace=wrap;html=1;" parent="FDom4B-1fI0kme8VLFCk-118" vertex="1">
          <mxGeometry y="74" width="330" height="26" as="geometry" />
        </mxCell>
        <mxCell id="FDom4B-1fI0kme8VLFCk-122" value="+ sendMessageTrigger(): void" style="text;strokeColor=none;fillColor=none;align=left;verticalAlign=top;spacingLeft=4;spacingRight=4;overflow=hidden;rotatable=0;points=[[0,0.5],[1,0.5]];portConstraint=eastwest;whiteSpace=wrap;html=1;" parent="FDom4B-1fI0kme8VLFCk-118" vertex="1">
          <mxGeometry y="100" width="330" height="26" as="geometry" />
        </mxCell>
        <mxCell id="FDom4B-1fI0kme8VLFCk-125" value="+ makeMessage(): void" style="text;strokeColor=none;fillColor=none;align=left;verticalAlign=top;spacingLeft=4;spacingRight=4;overflow=hidden;rotatable=0;points=[[0,0.5],[1,0.5]];portConstraint=eastwest;whiteSpace=wrap;html=1;" parent="FDom4B-1fI0kme8VLFCk-118" vertex="1">
          <mxGeometry y="126" width="330" height="26" as="geometry" />
        </mxCell>
        <mxCell id="FDom4B-1fI0kme8VLFCk-137" value="&lt;span style=&quot;font-weight: normal;&quot;&gt;&amp;lt;&amp;lt;interface&amp;gt;&amp;gt;&lt;/span&gt;&lt;div&gt;ISupplayService&lt;/div&gt;&lt;div&gt;&lt;/div&gt;" style="swimlane;fontStyle=1;align=center;verticalAlign=top;childLayout=stackLayout;horizontal=1;startSize=40;horizontalStack=0;resizeParent=1;resizeParentMax=0;resizeLast=0;collapsible=1;marginBottom=0;whiteSpace=wrap;html=1;" parent="1" vertex="1">
          <mxGeometry x="150" y="-476" width="330" height="204" as="geometry" />
        </mxCell>
        <mxCell id="FDom4B-1fI0kme8VLFCk-139" value="" style="line;strokeWidth=1;fillColor=none;align=left;verticalAlign=middle;spacingTop=-1;spacingLeft=3;spacingRight=3;rotatable=0;labelPosition=right;points=[];portConstraint=eastwest;strokeColor=inherit;" parent="FDom4B-1fI0kme8VLFCk-137" vertex="1">
          <mxGeometry y="40" width="330" height="8" as="geometry" />
        </mxCell>
        <mxCell id="FDom4B-1fI0kme8VLFCk-140" value="+ connect(): bool" style="text;strokeColor=none;fillColor=none;align=left;verticalAlign=top;spacingLeft=4;spacingRight=4;overflow=hidden;rotatable=0;points=[[0,0.5],[1,0.5]];portConstraint=eastwest;whiteSpace=wrap;html=1;" parent="FDom4B-1fI0kme8VLFCk-137" vertex="1">
          <mxGeometry y="48" width="330" height="26" as="geometry" />
        </mxCell>
        <mxCell id="FDom4B-1fI0kme8VLFCk-141" value="+ dissconnect(): bool" style="text;strokeColor=none;fillColor=none;align=left;verticalAlign=top;spacingLeft=4;spacingRight=4;overflow=hidden;rotatable=0;points=[[0,0.5],[1,0.5]];portConstraint=eastwest;whiteSpace=wrap;html=1;" parent="FDom4B-1fI0kme8VLFCk-137" vertex="1">
          <mxGeometry y="74" width="330" height="26" as="geometry" />
        </mxCell>
        <mxCell id="FDom4B-1fI0kme8VLFCk-142" value="+ createDelivery(): bool" style="text;strokeColor=none;fillColor=none;align=left;verticalAlign=top;spacingLeft=4;spacingRight=4;overflow=hidden;rotatable=0;points=[[0,0.5],[1,0.5]];portConstraint=eastwest;whiteSpace=wrap;html=1;" parent="FDom4B-1fI0kme8VLFCk-137" vertex="1">
          <mxGeometry y="100" width="330" height="26" as="geometry" />
        </mxCell>
        <mxCell id="FDom4B-1fI0kme8VLFCk-143" value="+ cancleDelivery(): bool" style="text;strokeColor=none;fillColor=none;align=left;verticalAlign=top;spacingLeft=4;spacingRight=4;overflow=hidden;rotatable=0;points=[[0,0.5],[1,0.5]];portConstraint=eastwest;whiteSpace=wrap;html=1;" parent="FDom4B-1fI0kme8VLFCk-137" vertex="1">
          <mxGeometry y="126" width="330" height="26" as="geometry" />
        </mxCell>
        <mxCell id="FDom4B-1fI0kme8VLFCk-144" value="+ updateDeliveryStatus(): void" style="text;strokeColor=none;fillColor=none;align=left;verticalAlign=top;spacingLeft=4;spacingRight=4;overflow=hidden;rotatable=0;points=[[0,0.5],[1,0.5]];portConstraint=eastwest;whiteSpace=wrap;html=1;" parent="FDom4B-1fI0kme8VLFCk-137" vertex="1">
          <mxGeometry y="152" width="330" height="26" as="geometry" />
        </mxCell>
        <mxCell id="FDom4B-1fI0kme8VLFCk-145" value="+ updateDeliveryDetails(): void" style="text;strokeColor=none;fillColor=none;align=left;verticalAlign=top;spacingLeft=4;spacingRight=4;overflow=hidden;rotatable=0;points=[[0,0.5],[1,0.5]];portConstraint=eastwest;whiteSpace=wrap;html=1;" parent="FDom4B-1fI0kme8VLFCk-137" vertex="1">
          <mxGeometry y="178" width="330" height="26" as="geometry" />
        </mxCell>
        <mxCell id="FDom4B-1fI0kme8VLFCk-146" value="&lt;span style=&quot;font-weight: normal;&quot;&gt;&amp;lt;&amp;lt;interface&amp;gt;&amp;gt;&lt;/span&gt;&lt;div&gt;IPaymentService&lt;/div&gt;&lt;div&gt;&lt;/div&gt;" style="swimlane;fontStyle=1;align=center;verticalAlign=top;childLayout=stackLayout;horizontal=1;startSize=40;horizontalStack=0;resizeParent=1;resizeParentMax=0;resizeLast=0;collapsible=1;marginBottom=0;whiteSpace=wrap;html=1;" parent="1" vertex="1">
          <mxGeometry x="571" y="-476" width="330" height="178" as="geometry" />
        </mxCell>
        <mxCell id="FDom4B-1fI0kme8VLFCk-148" value="" style="line;strokeWidth=1;fillColor=none;align=left;verticalAlign=middle;spacingTop=-1;spacingLeft=3;spacingRight=3;rotatable=0;labelPosition=right;points=[];portConstraint=eastwest;strokeColor=inherit;" parent="FDom4B-1fI0kme8VLFCk-146" vertex="1">
          <mxGeometry y="40" width="330" height="8" as="geometry" />
        </mxCell>
        <mxCell id="FDom4B-1fI0kme8VLFCk-149" value="+ connect(): bool" style="text;strokeColor=none;fillColor=none;align=left;verticalAlign=top;spacingLeft=4;spacingRight=4;overflow=hidden;rotatable=0;points=[[0,0.5],[1,0.5]];portConstraint=eastwest;whiteSpace=wrap;html=1;" parent="FDom4B-1fI0kme8VLFCk-146" vertex="1">
          <mxGeometry y="48" width="330" height="26" as="geometry" />
        </mxCell>
        <mxCell id="FDom4B-1fI0kme8VLFCk-150" value="+ dissconnect(): bool" style="text;strokeColor=none;fillColor=none;align=left;verticalAlign=top;spacingLeft=4;spacingRight=4;overflow=hidden;rotatable=0;points=[[0,0.5],[1,0.5]];portConstraint=eastwest;whiteSpace=wrap;html=1;" parent="FDom4B-1fI0kme8VLFCk-146" vertex="1">
          <mxGeometry y="74" width="330" height="26" as="geometry" />
        </mxCell>
        <mxCell id="FDom4B-1fI0kme8VLFCk-151" value="+ makePayment(): bool" style="text;strokeColor=none;fillColor=none;align=left;verticalAlign=top;spacingLeft=4;spacingRight=4;overflow=hidden;rotatable=0;points=[[0,0.5],[1,0.5]];portConstraint=eastwest;whiteSpace=wrap;html=1;" parent="FDom4B-1fI0kme8VLFCk-146" vertex="1">
          <mxGeometry y="100" width="330" height="26" as="geometry" />
        </mxCell>
        <mxCell id="FDom4B-1fI0kme8VLFCk-152" value="+ canclePayment(): bool" style="text;strokeColor=none;fillColor=none;align=left;verticalAlign=top;spacingLeft=4;spacingRight=4;overflow=hidden;rotatable=0;points=[[0,0.5],[1,0.5]];portConstraint=eastwest;whiteSpace=wrap;html=1;" parent="FDom4B-1fI0kme8VLFCk-146" vertex="1">
          <mxGeometry y="126" width="330" height="26" as="geometry" />
        </mxCell>
        <mxCell id="FDom4B-1fI0kme8VLFCk-153" value="+ refund(): bool" style="text;strokeColor=none;fillColor=none;align=left;verticalAlign=top;spacingLeft=4;spacingRight=4;overflow=hidden;rotatable=0;points=[[0,0.5],[1,0.5]];portConstraint=eastwest;whiteSpace=wrap;html=1;" parent="FDom4B-1fI0kme8VLFCk-146" vertex="1">
          <mxGeometry y="152" width="330" height="26" as="geometry" />
        </mxCell>
        <mxCell id="FDom4B-1fI0kme8VLFCk-156" value="&lt;p style=&quot;margin:0px;margin-top:4px;text-align:center;&quot;&gt;&lt;b&gt;AlertManager&lt;/b&gt;&lt;/p&gt;&lt;hr size=&quot;1&quot; style=&quot;border-style:solid;&quot;&gt;&lt;div style=&quot;height:2px;&quot;&gt;&lt;/div&gt;" style="verticalAlign=top;align=left;overflow=fill;html=1;whiteSpace=wrap;" parent="1" vertex="1">
          <mxGeometry x="1350" y="-296" width="330" height="60" as="geometry" />
        </mxCell>
        <mxCell id="FDom4B-1fI0kme8VLFCk-168" style="edgeStyle=orthogonalEdgeStyle;rounded=0;orthogonalLoop=1;jettySize=auto;html=1;exitX=0.5;exitY=1;exitDx=0;exitDy=0;entryX=0;entryY=0.5;entryDx=0;entryDy=0;dashed=1;endArrow=open;endFill=0;" parent="1" source="FDom4B-1fI0kme8VLFCk-157" target="pJkwpibmYWs6iMc-g0Pl-82" edge="1">
          <mxGeometry relative="1" as="geometry">
            <Array as="points">
              <mxPoint x="1072" y="-9" />
              <mxPoint x="1072" y="814" />
            </Array>
          </mxGeometry>
        </mxCell>
        <mxCell id="FDom4B-1fI0kme8VLFCk-169" value="&amp;lt;&amp;lt;use&amp;gt;&amp;gt;" style="edgeLabel;html=1;align=center;verticalAlign=middle;resizable=0;points=[];" parent="FDom4B-1fI0kme8VLFCk-168" vertex="1" connectable="0">
          <mxGeometry x="-0.9391" y="3" relative="1" as="geometry">
            <mxPoint y="75" as="offset" />
          </mxGeometry>
        </mxCell>
        <mxCell id="FDom4B-1fI0kme8VLFCk-157" value="&lt;p style=&quot;margin:0px;margin-top:4px;text-align:center;&quot;&gt;&lt;b&gt;MarketManager&lt;/b&gt;&lt;/p&gt;&lt;hr size=&quot;1&quot; style=&quot;border-style:solid;&quot;&gt;&lt;div style=&quot;height:2px;&quot;&gt;&lt;/div&gt;" style="verticalAlign=top;align=left;overflow=fill;html=1;whiteSpace=wrap;" parent="1" vertex="1">
          <mxGeometry x="954" y="-69" width="330" height="60" as="geometry" />
        </mxCell>
        <mxCell id="FDom4B-1fI0kme8VLFCk-158" value="&lt;p style=&quot;margin:0px;margin-top:4px;text-align:center;&quot;&gt;&lt;b&gt;SupplyManager&lt;/b&gt;&lt;/p&gt;&lt;hr size=&quot;1&quot; style=&quot;border-style:solid;&quot;&gt;&lt;div style=&quot;height:2px;&quot;&gt;&lt;/div&gt;" style="verticalAlign=top;align=left;overflow=fill;html=1;whiteSpace=wrap;" parent="1" vertex="1">
          <mxGeometry x="150" y="-246" width="330" height="60" as="geometry" />
        </mxCell>
        <mxCell id="FDom4B-1fI0kme8VLFCk-185" style="edgeStyle=orthogonalEdgeStyle;rounded=0;orthogonalLoop=1;jettySize=auto;html=1;exitX=0.5;exitY=1;exitDx=0;exitDy=0;dashed=1;endArrow=open;endFill=0;entryX=1;entryY=0.5;entryDx=0;entryDy=0;" parent="1" source="FDom4B-1fI0kme8VLFCk-159" target="FDom4B-1fI0kme8VLFCk-92" edge="1">
          <mxGeometry relative="1" as="geometry">
            <Array as="points">
              <mxPoint x="580" y="-196" />
              <mxPoint x="580" y="953" />
            </Array>
          </mxGeometry>
        </mxCell>
        <mxCell id="FDom4B-1fI0kme8VLFCk-187" value="&amp;lt;&amp;lt;use&amp;gt;&amp;gt;" style="edgeLabel;html=1;align=center;verticalAlign=middle;resizable=0;points=[];" parent="FDom4B-1fI0kme8VLFCk-185" vertex="1" connectable="0">
          <mxGeometry x="-0.9148" y="2" relative="1" as="geometry">
            <mxPoint as="offset" />
          </mxGeometry>
        </mxCell>
        <mxCell id="FDom4B-1fI0kme8VLFCk-159" value="&lt;p style=&quot;margin:0px;margin-top:4px;text-align:center;&quot;&gt;&lt;b&gt;PaymentManager&lt;/b&gt;&lt;/p&gt;&lt;hr size=&quot;1&quot; style=&quot;border-style:solid;&quot;&gt;&lt;div style=&quot;height:2px;&quot;&gt;&lt;/div&gt;" style="verticalAlign=top;align=left;overflow=fill;html=1;whiteSpace=wrap;" parent="1" vertex="1">
          <mxGeometry x="571" y="-256" width="330" height="60" as="geometry" />
        </mxCell>
        <mxCell id="FDom4B-1fI0kme8VLFCk-160" value="&lt;font style=&quot;font-size: 20px;&quot;&gt;service&lt;/font&gt;" style="shape=umlFrame;whiteSpace=wrap;html=1;pointerEvents=0;width=110;height=54;" parent="1" vertex="1">
          <mxGeometry x="-740" y="-790" width="3660" height="934" as="geometry" />
        </mxCell>
        <mxCell id="FDom4B-1fI0kme8VLFCk-161" value="&lt;font style=&quot;font-size: 30px;&quot;&gt;domain&lt;/font&gt;" style="shape=umlFrame;whiteSpace=wrap;html=1;pointerEvents=0;width=240;height=90;" parent="1" vertex="1">
          <mxGeometry x="-750" y="160" width="4310" height="1840" as="geometry" />
        </mxCell>
        <mxCell id="FDom4B-1fI0kme8VLFCk-162" value="&lt;font style=&quot;font-size: 30px;&quot;&gt;market&lt;/font&gt;" style="shape=umlFrame;whiteSpace=wrap;html=1;pointerEvents=0;width=240;height=90;" parent="1" vertex="1">
          <mxGeometry x="600" y="250" width="960" height="1510" as="geometry" />
        </mxCell>
        <mxCell id="FDom4B-1fI0kme8VLFCk-163" value="&lt;font style=&quot;font-size: 30px;&quot;&gt;alert&lt;/font&gt;" style="shape=umlFrame;whiteSpace=wrap;html=1;pointerEvents=0;width=240;height=90;" parent="1" vertex="1">
          <mxGeometry x="1650" y="250" width="860" height="850" as="geometry" />
        </mxCell>
        <mxCell id="FDom4B-1fI0kme8VLFCk-165" value="&lt;font style=&quot;font-size: 30px;&quot;&gt;supply&lt;/font&gt;" style="shape=umlFrame;whiteSpace=wrap;html=1;pointerEvents=0;width=240;height=90;" parent="1" vertex="1">
          <mxGeometry x="-290" y="454" width="440" height="686" as="geometry" />
        </mxCell>
        <mxCell id="FDom4B-1fI0kme8VLFCk-166" value="&lt;font style=&quot;font-size: 30px;&quot;&gt;payment&lt;/font&gt;" style="shape=umlFrame;whiteSpace=wrap;html=1;pointerEvents=0;width=240;height=90;" parent="1" vertex="1">
          <mxGeometry x="166" y="454" width="390" height="686" as="geometry" />
        </mxCell>
        <mxCell id="FDom4B-1fI0kme8VLFCk-170" style="edgeStyle=orthogonalEdgeStyle;rounded=0;orthogonalLoop=1;jettySize=auto;html=1;exitX=0.5;exitY=1;exitDx=0;exitDy=0;entryX=0.5;entryY=0;entryDx=0;entryDy=0;dashed=1;endArrow=open;endFill=0;" parent="1" source="FDom4B-1fI0kme8VLFCk-156" target="FDom4B-1fI0kme8VLFCk-171" edge="1">
          <mxGeometry relative="1" as="geometry" />
        </mxCell>
        <mxCell id="FDom4B-1fI0kme8VLFCk-172" value="&amp;lt;&amp;lt;use&amp;gt;&amp;gt;" style="edgeLabel;html=1;align=center;verticalAlign=middle;resizable=0;points=[];" parent="FDom4B-1fI0kme8VLFCk-170" vertex="1" connectable="0">
          <mxGeometry x="-0.9501" y="-1" relative="1" as="geometry">
            <mxPoint as="offset" />
          </mxGeometry>
        </mxCell>
        <mxCell id="FDom4B-1fI0kme8VLFCk-171" value="&lt;p style=&quot;margin:0px;margin-top:4px;text-align:center;&quot;&gt;&lt;b&gt;AlertFacade&lt;/b&gt;&lt;/p&gt;&lt;hr size=&quot;1&quot; style=&quot;border-style:solid;&quot;&gt;&lt;div style=&quot;height:2px;&quot;&gt;&lt;/div&gt;" style="verticalAlign=top;align=left;overflow=fill;html=1;whiteSpace=wrap;" parent="1" vertex="1">
          <mxGeometry x="1970" y="390" width="330" height="60" as="geometry" />
        </mxCell>
        <mxCell id="FDom4B-1fI0kme8VLFCk-184" style="edgeStyle=orthogonalEdgeStyle;rounded=0;orthogonalLoop=1;jettySize=auto;html=1;exitX=0.5;exitY=1;exitDx=0;exitDy=0;entryX=1;entryY=0.5;entryDx=0;entryDy=0;dashed=1;endArrow=open;endFill=0;" parent="1" edge="1">
          <mxGeometry relative="1" as="geometry">
            <mxPoint x="315" y="-180" as="sourcePoint" />
            <mxPoint x="105" y="979.0000000000005" as="targetPoint" />
            <Array as="points">
              <mxPoint x="150" y="-180" />
              <mxPoint x="150" y="979" />
            </Array>
          </mxGeometry>
        </mxCell>
        <mxCell id="FDom4B-1fI0kme8VLFCk-186" value="&amp;lt;&amp;lt;use&amp;gt;&amp;gt;" style="edgeLabel;html=1;align=center;verticalAlign=middle;resizable=0;points=[];" parent="FDom4B-1fI0kme8VLFCk-184" vertex="1" connectable="0">
          <mxGeometry x="-0.8987" y="1" relative="1" as="geometry">
            <mxPoint as="offset" />
          </mxGeometry>
        </mxCell>
        <mxCell id="FDom4B-1fI0kme8VLFCk-188" value="&lt;span style=&quot;font-weight: 400;&quot;&gt;Purchase- strategy&lt;/span&gt;&lt;div&gt;&lt;/div&gt;" style="swimlane;fontStyle=1;align=center;verticalAlign=top;childLayout=stackLayout;horizontal=1;startSize=40;horizontalStack=0;resizeParent=1;resizeParentMax=0;resizeLast=0;collapsible=1;marginBottom=0;whiteSpace=wrap;html=1;" parent="1" vertex="1">
          <mxGeometry x="690" y="420" width="330" height="152" as="geometry" />
        </mxCell>
        <mxCell id="FDom4B-1fI0kme8VLFCk-189" value="- userId: int" style="text;strokeColor=none;fillColor=none;align=left;verticalAlign=top;spacingLeft=4;spacingRight=4;overflow=hidden;rotatable=0;points=[[0,0.5],[1,0.5]];portConstraint=eastwest;whiteSpace=wrap;html=1;" parent="FDom4B-1fI0kme8VLFCk-188" vertex="1">
          <mxGeometry y="40" width="330" height="26" as="geometry" />
        </mxCell>
        <mxCell id="FDom4B-1fI0kme8VLFCk-191" value="- storeId: int" style="text;strokeColor=none;fillColor=none;align=left;verticalAlign=top;spacingLeft=4;spacingRight=4;overflow=hidden;rotatable=0;points=[[0,0.5],[1,0.5]];portConstraint=eastwest;whiteSpace=wrap;html=1;" parent="FDom4B-1fI0kme8VLFCk-188" vertex="1">
          <mxGeometry y="66" width="330" height="26" as="geometry" />
        </mxCell>
        <mxCell id="FDom4B-1fI0kme8VLFCk-193" value="- totalPrice: double" style="text;strokeColor=none;fillColor=none;align=left;verticalAlign=top;spacingLeft=4;spacingRight=4;overflow=hidden;rotatable=0;points=[[0,0.5],[1,0.5]];portConstraint=eastwest;whiteSpace=wrap;html=1;" parent="FDom4B-1fI0kme8VLFCk-188" vertex="1">
          <mxGeometry y="92" width="330" height="26" as="geometry" />
        </mxCell>
        <mxCell id="FDom4B-1fI0kme8VLFCk-194" value="" style="line;strokeWidth=1;fillColor=none;align=left;verticalAlign=middle;spacingTop=-1;spacingLeft=3;spacingRight=3;rotatable=0;labelPosition=right;points=[];portConstraint=eastwest;strokeColor=inherit;" parent="FDom4B-1fI0kme8VLFCk-188" vertex="1">
          <mxGeometry y="118" width="330" height="8" as="geometry" />
        </mxCell>
        <mxCell id="FDom4B-1fI0kme8VLFCk-195" value="+ purchase(): bool" style="text;strokeColor=none;fillColor=none;align=left;verticalAlign=top;spacingLeft=4;spacingRight=4;overflow=hidden;rotatable=0;points=[[0,0.5],[1,0.5]];portConstraint=eastwest;whiteSpace=wrap;html=1;" parent="FDom4B-1fI0kme8VLFCk-188" vertex="1">
          <mxGeometry y="126" width="330" height="26" as="geometry" />
        </mxCell>
        <mxCell id="FDom4B-1fI0kme8VLFCk-196" value="&lt;span style=&quot;font-weight: 400;&quot;&gt;Normal&lt;/span&gt;&lt;div&gt;&lt;/div&gt;" style="swimlane;fontStyle=1;align=center;verticalAlign=top;childLayout=stackLayout;horizontal=1;startSize=40;horizontalStack=0;resizeParent=1;resizeParentMax=0;resizeLast=0;collapsible=1;marginBottom=0;whiteSpace=wrap;html=1;" parent="1" vertex="1">
          <mxGeometry x="617" y="626" width="210" height="74" as="geometry" />
        </mxCell>
        <mxCell id="FDom4B-1fI0kme8VLFCk-202" value="" style="line;strokeWidth=1;fillColor=none;align=left;verticalAlign=middle;spacingTop=-1;spacingLeft=3;spacingRight=3;rotatable=0;labelPosition=right;points=[];portConstraint=eastwest;strokeColor=inherit;" parent="FDom4B-1fI0kme8VLFCk-196" vertex="1">
          <mxGeometry y="40" width="210" height="8" as="geometry" />
        </mxCell>
        <mxCell id="FDom4B-1fI0kme8VLFCk-203" value="+ purchase(): bool" style="text;strokeColor=none;fillColor=none;align=left;verticalAlign=top;spacingLeft=4;spacingRight=4;overflow=hidden;rotatable=0;points=[[0,0.5],[1,0.5]];portConstraint=eastwest;whiteSpace=wrap;html=1;" parent="FDom4B-1fI0kme8VLFCk-196" vertex="1">
          <mxGeometry y="48" width="210" height="26" as="geometry" />
        </mxCell>
        <mxCell id="FDom4B-1fI0kme8VLFCk-204" value="&lt;span style=&quot;font-weight: 400;&quot;&gt;Bid&lt;/span&gt;&lt;div&gt;&lt;/div&gt;" style="swimlane;fontStyle=1;align=center;verticalAlign=top;childLayout=stackLayout;horizontal=1;startSize=40;horizontalStack=0;resizeParent=1;resizeParentMax=0;resizeLast=0;collapsible=1;marginBottom=0;whiteSpace=wrap;html=1;" parent="1" vertex="1">
          <mxGeometry x="740" y="730" width="210" height="74" as="geometry" />
        </mxCell>
        <mxCell id="FDom4B-1fI0kme8VLFCk-205" value="" style="line;strokeWidth=1;fillColor=none;align=left;verticalAlign=middle;spacingTop=-1;spacingLeft=3;spacingRight=3;rotatable=0;labelPosition=right;points=[];portConstraint=eastwest;strokeColor=inherit;" parent="FDom4B-1fI0kme8VLFCk-204" vertex="1">
          <mxGeometry y="40" width="210" height="8" as="geometry" />
        </mxCell>
        <mxCell id="FDom4B-1fI0kme8VLFCk-206" value="+ purchase(): bool" style="text;strokeColor=none;fillColor=none;align=left;verticalAlign=top;spacingLeft=4;spacingRight=4;overflow=hidden;rotatable=0;points=[[0,0.5],[1,0.5]];portConstraint=eastwest;whiteSpace=wrap;html=1;" parent="FDom4B-1fI0kme8VLFCk-204" vertex="1">
          <mxGeometry y="48" width="210" height="26" as="geometry" />
        </mxCell>
        <mxCell id="FDom4B-1fI0kme8VLFCk-207" value="&lt;span style=&quot;font-weight: 400;&quot;&gt;PublicSale&lt;/span&gt;&lt;div&gt;&lt;/div&gt;" style="swimlane;fontStyle=1;align=center;verticalAlign=top;childLayout=stackLayout;horizontal=1;startSize=40;horizontalStack=0;resizeParent=1;resizeParentMax=0;resizeLast=0;collapsible=1;marginBottom=0;whiteSpace=wrap;html=1;" parent="1" vertex="1">
          <mxGeometry x="840" y="628" width="210" height="74" as="geometry" />
        </mxCell>
        <mxCell id="FDom4B-1fI0kme8VLFCk-208" value="" style="line;strokeWidth=1;fillColor=none;align=left;verticalAlign=middle;spacingTop=-1;spacingLeft=3;spacingRight=3;rotatable=0;labelPosition=right;points=[];portConstraint=eastwest;strokeColor=inherit;" parent="FDom4B-1fI0kme8VLFCk-207" vertex="1">
          <mxGeometry y="40" width="210" height="8" as="geometry" />
        </mxCell>
        <mxCell id="FDom4B-1fI0kme8VLFCk-209" value="+ purchase(): bool" style="text;strokeColor=none;fillColor=none;align=left;verticalAlign=top;spacingLeft=4;spacingRight=4;overflow=hidden;rotatable=0;points=[[0,0.5],[1,0.5]];portConstraint=eastwest;whiteSpace=wrap;html=1;" parent="FDom4B-1fI0kme8VLFCk-207" vertex="1">
          <mxGeometry y="48" width="210" height="26" as="geometry" />
        </mxCell>
        <mxCell id="SJU77nNtgm_mmSQfWu9N-1" value="&lt;span style=&quot;font-weight: normal;&quot;&gt;&amp;lt;&amp;lt;interface&amp;gt;&amp;gt;&lt;/span&gt;&lt;div&gt;IClientService&lt;/div&gt;" style="swimlane;fontStyle=1;align=center;verticalAlign=top;childLayout=stackLayout;horizontal=1;startSize=40;horizontalStack=0;resizeParent=1;resizeParentMax=0;resizeLast=0;collapsible=1;marginBottom=0;whiteSpace=wrap;html=1;" parent="1" vertex="1">
          <mxGeometry x="1780" y="-476" width="330" height="386" as="geometry" />
        </mxCell>
        <mxCell id="SJU77nNtgm_mmSQfWu9N-2" value="" style="line;strokeWidth=1;fillColor=none;align=left;verticalAlign=middle;spacingTop=-1;spacingLeft=3;spacingRight=3;rotatable=0;labelPosition=right;points=[];portConstraint=eastwest;strokeColor=inherit;" parent="SJU77nNtgm_mmSQfWu9N-1" vertex="1">
          <mxGeometry y="40" width="330" height="8" as="geometry" />
        </mxCell>
        <mxCell id="SJU77nNtgm_mmSQfWu9N-3" value="+ browseGuest(): void" style="text;strokeColor=none;fillColor=none;align=left;verticalAlign=top;spacingLeft=4;spacingRight=4;overflow=hidden;rotatable=0;points=[[0,0.5],[1,0.5]];portConstraint=eastwest;whiteSpace=wrap;html=1;" parent="SJU77nNtgm_mmSQfWu9N-1" vertex="1">
          <mxGeometry y="48" width="330" height="26" as="geometry" />
        </mxCell>
        <mxCell id="SJU77nNtgm_mmSQfWu9N-4" value="+ exitGuest(): void" style="text;strokeColor=none;fillColor=none;align=left;verticalAlign=top;spacingLeft=4;spacingRight=4;overflow=hidden;rotatable=0;points=[[0,0.5],[1,0.5]];portConstraint=eastwest;whiteSpace=wrap;html=1;" parent="SJU77nNtgm_mmSQfWu9N-1" vertex="1">
          <mxGeometry y="74" width="330" height="26" as="geometry" />
        </mxCell>
        <mxCell id="SJU77nNtgm_mmSQfWu9N-5" value="+ loginClient(): void" style="text;strokeColor=none;fillColor=none;align=left;verticalAlign=top;spacingLeft=4;spacingRight=4;overflow=hidden;rotatable=0;points=[[0,0.5],[1,0.5]];portConstraint=eastwest;whiteSpace=wrap;html=1;" parent="SJU77nNtgm_mmSQfWu9N-1" vertex="1">
          <mxGeometry y="100" width="330" height="26" as="geometry" />
        </mxCell>
        <mxCell id="SJU77nNtgm_mmSQfWu9N-7" value="+ signupClient(): void" style="text;strokeColor=none;fillColor=none;align=left;verticalAlign=top;spacingLeft=4;spacingRight=4;overflow=hidden;rotatable=0;points=[[0,0.5],[1,0.5]];portConstraint=eastwest;whiteSpace=wrap;html=1;" parent="SJU77nNtgm_mmSQfWu9N-1" vertex="1">
          <mxGeometry y="126" width="330" height="26" as="geometry" />
        </mxCell>
        <mxCell id="SJU77nNtgm_mmSQfWu9N-6" value="+ logoutClient(): void" style="text;strokeColor=none;fillColor=none;align=left;verticalAlign=top;spacingLeft=4;spacingRight=4;overflow=hidden;rotatable=0;points=[[0,0.5],[1,0.5]];portConstraint=eastwest;whiteSpace=wrap;html=1;" parent="SJU77nNtgm_mmSQfWu9N-1" vertex="1">
          <mxGeometry y="152" width="330" height="26" as="geometry" />
        </mxCell>
        <mxCell id="SJU77nNtgm_mmSQfWu9N-9" value="+ addToCart(): void" style="text;strokeColor=none;fillColor=none;align=left;verticalAlign=top;spacingLeft=4;spacingRight=4;overflow=hidden;rotatable=0;points=[[0,0.5],[1,0.5]];portConstraint=eastwest;whiteSpace=wrap;html=1;" parent="SJU77nNtgm_mmSQfWu9N-1" vertex="1">
          <mxGeometry y="178" width="330" height="26" as="geometry" />
        </mxCell>
        <mxCell id="SJU77nNtgm_mmSQfWu9N-42" value="+ viewCart(): void" style="text;strokeColor=none;fillColor=none;align=left;verticalAlign=top;spacingLeft=4;spacingRight=4;overflow=hidden;rotatable=0;points=[[0,0.5],[1,0.5]];portConstraint=eastwest;whiteSpace=wrap;html=1;" parent="SJU77nNtgm_mmSQfWu9N-1" vertex="1">
          <mxGeometry y="204" width="330" height="26" as="geometry" />
        </mxCell>
        <mxCell id="SJU77nNtgm_mmSQfWu9N-41" value="+ editCart(): void" style="text;strokeColor=none;fillColor=none;align=left;verticalAlign=top;spacingLeft=4;spacingRight=4;overflow=hidden;rotatable=0;points=[[0,0.5],[1,0.5]];portConstraint=eastwest;whiteSpace=wrap;html=1;" parent="SJU77nNtgm_mmSQfWu9N-1" vertex="1">
          <mxGeometry y="230" width="330" height="26" as="geometry" />
        </mxCell>
        <mxCell id="SJU77nNtgm_mmSQfWu9N-11" value="+ purchaseCart(): void" style="text;strokeColor=none;fillColor=none;align=left;verticalAlign=top;spacingLeft=4;spacingRight=4;overflow=hidden;rotatable=0;points=[[0,0.5],[1,0.5]];portConstraint=eastwest;whiteSpace=wrap;html=1;" parent="SJU77nNtgm_mmSQfWu9N-1" vertex="1">
          <mxGeometry y="256" width="330" height="26" as="geometry" />
        </mxCell>
        <mxCell id="SJU77nNtgm_mmSQfWu9N-10" value="+ logoutClient(): void" style="text;strokeColor=none;fillColor=none;align=left;verticalAlign=top;spacingLeft=4;spacingRight=4;overflow=hidden;rotatable=0;points=[[0,0.5],[1,0.5]];portConstraint=eastwest;whiteSpace=wrap;html=1;" parent="SJU77nNtgm_mmSQfWu9N-1" vertex="1">
          <mxGeometry y="282" width="330" height="26" as="geometry" />
        </mxCell>
        <mxCell id="SJU77nNtgm_mmSQfWu9N-12" value="+ createStore(): void" style="text;strokeColor=none;fillColor=none;align=left;verticalAlign=top;spacingLeft=4;spacingRight=4;overflow=hidden;rotatable=0;points=[[0,0.5],[1,0.5]];portConstraint=eastwest;whiteSpace=wrap;html=1;" parent="SJU77nNtgm_mmSQfWu9N-1" vertex="1">
          <mxGeometry y="308" width="330" height="26" as="geometry" />
        </mxCell>
        <mxCell id="SJU77nNtgm_mmSQfWu9N-47" value="+ resToStoreOwnershipReq(): void" style="text;strokeColor=none;fillColor=none;align=left;verticalAlign=top;spacingLeft=4;spacingRight=4;overflow=hidden;rotatable=0;points=[[0,0.5],[1,0.5]];portConstraint=eastwest;whiteSpace=wrap;html=1;" parent="SJU77nNtgm_mmSQfWu9N-1" vertex="1">
          <mxGeometry y="334" width="330" height="26" as="geometry" />
        </mxCell>
        <mxCell id="SJU77nNtgm_mmSQfWu9N-51" value="+ resToStoreManageReq(): void" style="text;strokeColor=none;fillColor=none;align=left;verticalAlign=top;spacingLeft=4;spacingRight=4;overflow=hidden;rotatable=0;points=[[0,0.5],[1,0.5]];portConstraint=eastwest;whiteSpace=wrap;html=1;" parent="SJU77nNtgm_mmSQfWu9N-1" vertex="1">
          <mxGeometry y="360" width="330" height="26" as="geometry" />
        </mxCell>
        <mxCell id="SJU77nNtgm_mmSQfWu9N-69" value="&lt;p style=&quot;margin:0px;margin-top:4px;text-align:center;&quot;&gt;&lt;b&gt;ClientManager&lt;/b&gt;&lt;/p&gt;&lt;hr size=&quot;1&quot; style=&quot;border-style:solid;&quot;&gt;&lt;div style=&quot;height:2px;&quot;&gt;&lt;/div&gt;" style="verticalAlign=top;align=left;overflow=fill;html=1;whiteSpace=wrap;" parent="1" vertex="1">
          <mxGeometry x="1780" y="-60" width="330" height="60" as="geometry" />
        </mxCell>
        <mxCell id="SJU77nNtgm_mmSQfWu9N-74" value="&lt;span style=&quot;font-size: 30px;&quot;&gt;client&lt;/span&gt;" style="shape=umlFrame;whiteSpace=wrap;html=1;pointerEvents=0;width=240;height=90;" parent="1" vertex="1">
          <mxGeometry x="2600" y="250" width="860" height="1680" as="geometry" />
        </mxCell>
        <mxCell id="SJU77nNtgm_mmSQfWu9N-86" value="&lt;span style=&quot;font-weight: normal;&quot;&gt;&amp;lt;&amp;lt;interface&amp;gt;&amp;gt;&lt;/span&gt;&lt;div&gt;ClientFacade&lt;/div&gt;" style="swimlane;fontStyle=1;align=center;verticalAlign=top;childLayout=stackLayout;horizontal=1;startSize=40;horizontalStack=0;resizeParent=1;resizeParentMax=0;resizeLast=0;collapsible=1;marginBottom=0;whiteSpace=wrap;html=1;" parent="1" vertex="1">
          <mxGeometry x="2730" y="430" width="330" height="334" as="geometry" />
        </mxCell>
        <mxCell id="SJU77nNtgm_mmSQfWu9N-87" value="" style="line;strokeWidth=1;fillColor=none;align=left;verticalAlign=middle;spacingTop=-1;spacingLeft=3;spacingRight=3;rotatable=0;labelPosition=right;points=[];portConstraint=eastwest;strokeColor=inherit;" parent="SJU77nNtgm_mmSQfWu9N-86" vertex="1">
          <mxGeometry y="40" width="330" height="8" as="geometry" />
        </mxCell>
        <mxCell id="SJU77nNtgm_mmSQfWu9N-88" value="+ browseGuest(): void" style="text;strokeColor=none;fillColor=none;align=left;verticalAlign=top;spacingLeft=4;spacingRight=4;overflow=hidden;rotatable=0;points=[[0,0.5],[1,0.5]];portConstraint=eastwest;whiteSpace=wrap;html=1;" parent="SJU77nNtgm_mmSQfWu9N-86" vertex="1">
          <mxGeometry y="48" width="330" height="26" as="geometry" />
        </mxCell>
        <mxCell id="SJU77nNtgm_mmSQfWu9N-89" value="+ exitGuest(): void" style="text;strokeColor=none;fillColor=none;align=left;verticalAlign=top;spacingLeft=4;spacingRight=4;overflow=hidden;rotatable=0;points=[[0,0.5],[1,0.5]];portConstraint=eastwest;whiteSpace=wrap;html=1;" parent="SJU77nNtgm_mmSQfWu9N-86" vertex="1">
          <mxGeometry y="74" width="330" height="26" as="geometry" />
        </mxCell>
        <mxCell id="SJU77nNtgm_mmSQfWu9N-90" value="+ loginClient(): void" style="text;strokeColor=none;fillColor=none;align=left;verticalAlign=top;spacingLeft=4;spacingRight=4;overflow=hidden;rotatable=0;points=[[0,0.5],[1,0.5]];portConstraint=eastwest;whiteSpace=wrap;html=1;" parent="SJU77nNtgm_mmSQfWu9N-86" vertex="1">
          <mxGeometry y="100" width="330" height="26" as="geometry" />
        </mxCell>
        <mxCell id="SJU77nNtgm_mmSQfWu9N-91" value="+ signupClient(): void" style="text;strokeColor=none;fillColor=none;align=left;verticalAlign=top;spacingLeft=4;spacingRight=4;overflow=hidden;rotatable=0;points=[[0,0.5],[1,0.5]];portConstraint=eastwest;whiteSpace=wrap;html=1;" parent="SJU77nNtgm_mmSQfWu9N-86" vertex="1">
          <mxGeometry y="126" width="330" height="26" as="geometry" />
        </mxCell>
        <mxCell id="SJU77nNtgm_mmSQfWu9N-92" value="+ logoutClient(): void" style="text;strokeColor=none;fillColor=none;align=left;verticalAlign=top;spacingLeft=4;spacingRight=4;overflow=hidden;rotatable=0;points=[[0,0.5],[1,0.5]];portConstraint=eastwest;whiteSpace=wrap;html=1;" parent="SJU77nNtgm_mmSQfWu9N-86" vertex="1">
          <mxGeometry y="152" width="330" height="26" as="geometry" />
        </mxCell>
        <mxCell id="SJU77nNtgm_mmSQfWu9N-93" value="+ addToCart(): void" style="text;strokeColor=none;fillColor=none;align=left;verticalAlign=top;spacingLeft=4;spacingRight=4;overflow=hidden;rotatable=0;points=[[0,0.5],[1,0.5]];portConstraint=eastwest;whiteSpace=wrap;html=1;" parent="SJU77nNtgm_mmSQfWu9N-86" vertex="1">
          <mxGeometry y="178" width="330" height="26" as="geometry" />
        </mxCell>
        <mxCell id="SJU77nNtgm_mmSQfWu9N-94" value="+ viewCart(): void" style="text;strokeColor=none;fillColor=none;align=left;verticalAlign=top;spacingLeft=4;spacingRight=4;overflow=hidden;rotatable=0;points=[[0,0.5],[1,0.5]];portConstraint=eastwest;whiteSpace=wrap;html=1;" parent="SJU77nNtgm_mmSQfWu9N-86" vertex="1">
          <mxGeometry y="204" width="330" height="26" as="geometry" />
        </mxCell>
        <mxCell id="SJU77nNtgm_mmSQfWu9N-95" value="+ editCart(): void" style="text;strokeColor=none;fillColor=none;align=left;verticalAlign=top;spacingLeft=4;spacingRight=4;overflow=hidden;rotatable=0;points=[[0,0.5],[1,0.5]];portConstraint=eastwest;whiteSpace=wrap;html=1;" parent="SJU77nNtgm_mmSQfWu9N-86" vertex="1">
          <mxGeometry y="230" width="330" height="26" as="geometry" />
        </mxCell>
        <mxCell id="SJU77nNtgm_mmSQfWu9N-96" value="+ purchaseCart(): void" style="text;strokeColor=none;fillColor=none;align=left;verticalAlign=top;spacingLeft=4;spacingRight=4;overflow=hidden;rotatable=0;points=[[0,0.5],[1,0.5]];portConstraint=eastwest;whiteSpace=wrap;html=1;" parent="SJU77nNtgm_mmSQfWu9N-86" vertex="1">
          <mxGeometry y="256" width="330" height="26" as="geometry" />
        </mxCell>
        <mxCell id="SJU77nNtgm_mmSQfWu9N-99" value="+ resToStoreOwnershipReq(): void" style="text;strokeColor=none;fillColor=none;align=left;verticalAlign=top;spacingLeft=4;spacingRight=4;overflow=hidden;rotatable=0;points=[[0,0.5],[1,0.5]];portConstraint=eastwest;whiteSpace=wrap;html=1;" parent="SJU77nNtgm_mmSQfWu9N-86" vertex="1">
          <mxGeometry y="282" width="330" height="26" as="geometry" />
        </mxCell>
        <mxCell id="SJU77nNtgm_mmSQfWu9N-100" value="+ resToStoreManageReq(): void" style="text;strokeColor=none;fillColor=none;align=left;verticalAlign=top;spacingLeft=4;spacingRight=4;overflow=hidden;rotatable=0;points=[[0,0.5],[1,0.5]];portConstraint=eastwest;whiteSpace=wrap;html=1;" parent="SJU77nNtgm_mmSQfWu9N-86" vertex="1">
          <mxGeometry y="308" width="330" height="26" as="geometry" />
        </mxCell>
        <mxCell id="SJU77nNtgm_mmSQfWu9N-101" style="edgeStyle=orthogonalEdgeStyle;rounded=0;orthogonalLoop=1;jettySize=auto;html=1;exitX=0.5;exitY=1;exitDx=0;exitDy=0;entryX=0;entryY=0.5;entryDx=0;entryDy=0;dashed=1;endArrow=open;endFill=0;" parent="1" source="SJU77nNtgm_mmSQfWu9N-69" target="SJU77nNtgm_mmSQfWu9N-105" edge="1">
          <mxGeometry relative="1" as="geometry">
            <mxPoint x="1525" y="-226" as="sourcePoint" />
            <mxPoint x="2145" y="400" as="targetPoint" />
            <Array as="points">
              <mxPoint x="1945" y="60" />
              <mxPoint x="2630" y="60" />
              <mxPoint x="2630" y="1199" />
            </Array>
          </mxGeometry>
        </mxCell>
        <mxCell id="SJU77nNtgm_mmSQfWu9N-102" value="&amp;lt;&amp;lt;use&amp;gt;&amp;gt;" style="edgeLabel;html=1;align=center;verticalAlign=middle;resizable=0;points=[];" parent="SJU77nNtgm_mmSQfWu9N-101" vertex="1" connectable="0">
          <mxGeometry x="-0.9501" y="-1" relative="1" as="geometry">
            <mxPoint as="offset" />
          </mxGeometry>
        </mxCell>
        <mxCell id="SJU77nNtgm_mmSQfWu9N-104" style="edgeStyle=orthogonalEdgeStyle;rounded=0;orthogonalLoop=1;jettySize=auto;html=1;exitX=0.5;exitY=0;exitDx=0;exitDy=0;dashed=1;dashPattern=8 8;endArrow=block;endFill=0;entryX=0.307;entryY=0.999;entryDx=0;entryDy=0;entryPerimeter=0;" parent="1" source="SJU77nNtgm_mmSQfWu9N-105" target="SJU77nNtgm_mmSQfWu9N-100" edge="1">
          <mxGeometry relative="1" as="geometry">
            <mxPoint x="2835.2699999999995" y="790.0779999999995" as="targetPoint" />
          </mxGeometry>
        </mxCell>
        <mxCell id="SJU77nNtgm_mmSQfWu9N-105" value="&lt;p style=&quot;margin:0px;margin-top:4px;text-align:center;&quot;&gt;&lt;b&gt;ClientFacade&lt;/b&gt;&lt;/p&gt;&lt;hr size=&quot;1&quot; style=&quot;border-style:solid;&quot;&gt;&lt;div style=&quot;height:2px;&quot;&gt;&lt;/div&gt;" style="verticalAlign=top;align=left;overflow=fill;html=1;whiteSpace=wrap;" parent="1" vertex="1">
          <mxGeometry x="2670" y="1180" width="330" height="60" as="geometry" />
        </mxCell>
        <mxCell id="SJU77nNtgm_mmSQfWu9N-106" style="edgeStyle=orthogonalEdgeStyle;rounded=0;orthogonalLoop=1;jettySize=auto;html=1;exitX=0.5;exitY=0;exitDx=0;exitDy=0;endArrow=diamondThin;endFill=1;startSize=6;endSize=11;entryX=0.5;entryY=1;entryDx=0;entryDy=0;" parent="1" source="SJU77nNtgm_mmSQfWu9N-107" target="SJU77nNtgm_mmSQfWu9N-105" edge="1">
          <mxGeometry relative="1" as="geometry">
            <mxPoint x="2845" y="1279" as="targetPoint" />
          </mxGeometry>
        </mxCell>
        <mxCell id="SJU77nNtgm_mmSQfWu9N-107" value="Client" style="swimlane;fontStyle=1;align=center;verticalAlign=top;childLayout=stackLayout;horizontal=1;startSize=26;horizontalStack=0;resizeParent=1;resizeParentMax=0;resizeLast=0;collapsible=1;marginBottom=0;whiteSpace=wrap;html=1;" parent="1" vertex="1">
          <mxGeometry x="2670" y="1339" width="330" height="294" as="geometry" />
        </mxCell>
        <mxCell id="SJU77nNtgm_mmSQfWu9N-108" value="- clientId: int" style="text;strokeColor=none;fillColor=none;align=left;verticalAlign=top;spacingLeft=4;spacingRight=4;overflow=hidden;rotatable=0;points=[[0,0.5],[1,0.5]];portConstraint=eastwest;whiteSpace=wrap;html=1;" parent="SJU77nNtgm_mmSQfWu9N-107" vertex="1">
          <mxGeometry y="26" width="330" height="26" as="geometry" />
        </mxCell>
        <mxCell id="SJU77nNtgm_mmSQfWu9N-155" value="- isLoggedIn: bool" style="text;strokeColor=none;fillColor=none;align=left;verticalAlign=top;spacingLeft=4;spacingRight=4;overflow=hidden;rotatable=0;points=[[0,0.5],[1,0.5]];portConstraint=eastwest;whiteSpace=wrap;html=1;" parent="SJU77nNtgm_mmSQfWu9N-107" vertex="1">
          <mxGeometry y="52" width="330" height="26" as="geometry" />
        </mxCell>
        <mxCell id="SJU77nNtgm_mmSQfWu9N-113" value="" style="line;strokeWidth=1;fillColor=none;align=left;verticalAlign=middle;spacingTop=-1;spacingLeft=3;spacingRight=3;rotatable=0;labelPosition=right;points=[];portConstraint=eastwest;strokeColor=inherit;" parent="SJU77nNtgm_mmSQfWu9N-107" vertex="1">
          <mxGeometry y="78" width="330" height="8" as="geometry" />
        </mxCell>
        <mxCell id="SJU77nNtgm_mmSQfWu9N-159" value="+ loginClient(): void" style="text;strokeColor=none;fillColor=none;align=left;verticalAlign=top;spacingLeft=4;spacingRight=4;overflow=hidden;rotatable=0;points=[[0,0.5],[1,0.5]];portConstraint=eastwest;whiteSpace=wrap;html=1;" parent="SJU77nNtgm_mmSQfWu9N-107" vertex="1">
          <mxGeometry y="86" width="330" height="26" as="geometry" />
        </mxCell>
        <mxCell id="SJU77nNtgm_mmSQfWu9N-160" value="+ signupClient(): void" style="text;strokeColor=none;fillColor=none;align=left;verticalAlign=top;spacingLeft=4;spacingRight=4;overflow=hidden;rotatable=0;points=[[0,0.5],[1,0.5]];portConstraint=eastwest;whiteSpace=wrap;html=1;" parent="SJU77nNtgm_mmSQfWu9N-107" vertex="1">
          <mxGeometry y="112" width="330" height="26" as="geometry" />
        </mxCell>
        <mxCell id="SJU77nNtgm_mmSQfWu9N-161" value="+ logoutClient(): void" style="text;strokeColor=none;fillColor=none;align=left;verticalAlign=top;spacingLeft=4;spacingRight=4;overflow=hidden;rotatable=0;points=[[0,0.5],[1,0.5]];portConstraint=eastwest;whiteSpace=wrap;html=1;" parent="SJU77nNtgm_mmSQfWu9N-107" vertex="1">
          <mxGeometry y="138" width="330" height="26" as="geometry" />
        </mxCell>
        <mxCell id="SJU77nNtgm_mmSQfWu9N-162" value="+ addToCart(): void" style="text;strokeColor=none;fillColor=none;align=left;verticalAlign=top;spacingLeft=4;spacingRight=4;overflow=hidden;rotatable=0;points=[[0,0.5],[1,0.5]];portConstraint=eastwest;whiteSpace=wrap;html=1;" parent="SJU77nNtgm_mmSQfWu9N-107" vertex="1">
          <mxGeometry y="164" width="330" height="26" as="geometry" />
        </mxCell>
        <mxCell id="SJU77nNtgm_mmSQfWu9N-164" value="+ editCart(): void" style="text;strokeColor=none;fillColor=none;align=left;verticalAlign=top;spacingLeft=4;spacingRight=4;overflow=hidden;rotatable=0;points=[[0,0.5],[1,0.5]];portConstraint=eastwest;whiteSpace=wrap;html=1;" parent="SJU77nNtgm_mmSQfWu9N-107" vertex="1">
          <mxGeometry y="190" width="330" height="26" as="geometry" />
        </mxCell>
        <mxCell id="SJU77nNtgm_mmSQfWu9N-163" value="+ viewCart(): void" style="text;strokeColor=none;fillColor=none;align=left;verticalAlign=top;spacingLeft=4;spacingRight=4;overflow=hidden;rotatable=0;points=[[0,0.5],[1,0.5]];portConstraint=eastwest;whiteSpace=wrap;html=1;" parent="SJU77nNtgm_mmSQfWu9N-107" vertex="1">
          <mxGeometry y="216" width="330" height="26" as="geometry" />
        </mxCell>
        <mxCell id="SJU77nNtgm_mmSQfWu9N-168" value="+ resToStoreOwnershipReq(): void" style="text;strokeColor=none;fillColor=none;align=left;verticalAlign=top;spacingLeft=4;spacingRight=4;overflow=hidden;rotatable=0;points=[[0,0.5],[1,0.5]];portConstraint=eastwest;whiteSpace=wrap;html=1;" parent="SJU77nNtgm_mmSQfWu9N-107" vertex="1">
          <mxGeometry y="242" width="330" height="26" as="geometry" />
        </mxCell>
        <mxCell id="SJU77nNtgm_mmSQfWu9N-169" value="+ resToStoreManageReq(): void" style="text;strokeColor=none;fillColor=none;align=left;verticalAlign=top;spacingLeft=4;spacingRight=4;overflow=hidden;rotatable=0;points=[[0,0.5],[1,0.5]];portConstraint=eastwest;whiteSpace=wrap;html=1;" parent="SJU77nNtgm_mmSQfWu9N-107" vertex="1">
          <mxGeometry y="268" width="330" height="26" as="geometry" />
        </mxCell>
        <mxCell id="SJU77nNtgm_mmSQfWu9N-146" value="Basket" style="swimlane;fontStyle=1;align=center;verticalAlign=top;childLayout=stackLayout;horizontal=1;startSize=30;horizontalStack=0;resizeParent=1;resizeParentMax=0;resizeLast=0;collapsible=1;marginBottom=0;whiteSpace=wrap;html=1;" parent="1" vertex="1">
          <mxGeometry x="3090" y="1169" width="330" height="142" as="geometry" />
        </mxCell>
        <mxCell id="SJU77nNtgm_mmSQfWu9N-152" value="- items: map&amp;lt;int, int&amp;gt;" style="text;strokeColor=none;fillColor=none;align=left;verticalAlign=top;spacingLeft=4;spacingRight=4;overflow=hidden;rotatable=0;points=[[0,0.5],[1,0.5]];portConstraint=eastwest;whiteSpace=wrap;html=1;" parent="SJU77nNtgm_mmSQfWu9N-146" vertex="1">
          <mxGeometry y="30" width="330" height="26" as="geometry" />
        </mxCell>
        <mxCell id="SJU77nNtgm_mmSQfWu9N-148" value="" style="line;strokeWidth=1;fillColor=none;align=left;verticalAlign=middle;spacingTop=-1;spacingLeft=3;spacingRight=3;rotatable=0;labelPosition=right;points=[];portConstraint=eastwest;strokeColor=inherit;" parent="SJU77nNtgm_mmSQfWu9N-146" vertex="1">
          <mxGeometry y="56" width="330" height="8" as="geometry" />
        </mxCell>
        <mxCell id="SJU77nNtgm_mmSQfWu9N-149" value="+ addItem(): void" style="text;strokeColor=none;fillColor=none;align=left;verticalAlign=top;spacingLeft=4;spacingRight=4;overflow=hidden;rotatable=0;points=[[0,0.5],[1,0.5]];portConstraint=eastwest;whiteSpace=wrap;html=1;" parent="SJU77nNtgm_mmSQfWu9N-146" vertex="1">
          <mxGeometry y="64" width="330" height="26" as="geometry" />
        </mxCell>
        <mxCell id="SJU77nNtgm_mmSQfWu9N-150" value="+ removeItem(): void" style="text;strokeColor=none;fillColor=none;align=left;verticalAlign=top;spacingLeft=4;spacingRight=4;overflow=hidden;rotatable=0;points=[[0,0.5],[1,0.5]];portConstraint=eastwest;whiteSpace=wrap;html=1;" parent="SJU77nNtgm_mmSQfWu9N-146" vertex="1">
          <mxGeometry y="90" width="330" height="26" as="geometry" />
        </mxCell>
        <mxCell id="SJU77nNtgm_mmSQfWu9N-151" value="+ viewBasket(): void" style="text;strokeColor=none;fillColor=none;align=left;verticalAlign=top;spacingLeft=4;spacingRight=4;overflow=hidden;rotatable=0;points=[[0,0.5],[1,0.5]];portConstraint=eastwest;whiteSpace=wrap;html=1;" parent="SJU77nNtgm_mmSQfWu9N-146" vertex="1">
          <mxGeometry y="116" width="330" height="26" as="geometry" />
        </mxCell>
        <mxCell id="SJU77nNtgm_mmSQfWu9N-153" style="edgeStyle=orthogonalEdgeStyle;rounded=0;orthogonalLoop=1;jettySize=auto;html=1;exitX=0;exitY=0.5;exitDx=0;exitDy=0;endArrow=diamondThin;endFill=1;startSize=6;endSize=11;entryX=0.75;entryY=0;entryDx=0;entryDy=0;" parent="1" source="SJU77nNtgm_mmSQfWu9N-150" target="SJU77nNtgm_mmSQfWu9N-107" edge="1">
          <mxGeometry relative="1" as="geometry">
            <mxPoint x="2999.999999999999" y="1430" as="targetPoint" />
            <mxPoint x="3080" y="1516" as="sourcePoint" />
          </mxGeometry>
        </mxCell>
        <mxCell id="SJU77nNtgm_mmSQfWu9N-154" value="cart" style="edgeLabel;html=1;align=center;verticalAlign=middle;resizable=0;points=[];" parent="SJU77nNtgm_mmSQfWu9N-153" vertex="1" connectable="0">
          <mxGeometry x="0.0641" relative="1" as="geometry">
            <mxPoint as="offset" />
          </mxGeometry>
        </mxCell>
        <mxCell id="EJYcgfiYVMfYpFsEXXHh-1" value="&lt;span style=&quot;font-weight: normal;&quot;&gt;&amp;lt;&amp;lt;interface&amp;gt;&amp;gt;&lt;/span&gt;&lt;div&gt;PermissionsService&lt;/div&gt;&lt;div&gt;&lt;/div&gt;" style="swimlane;fontStyle=1;align=center;verticalAlign=top;childLayout=stackLayout;horizontal=1;startSize=40;horizontalStack=0;resizeParent=1;resizeParentMax=0;resizeLast=0;collapsible=1;marginBottom=0;whiteSpace=wrap;html=1;" parent="1" vertex="1">
          <mxGeometry x="-610" y="-476" width="330" height="150" as="geometry" />
        </mxCell>
        <mxCell id="EJYcgfiYVMfYpFsEXXHh-2" value="" style="line;strokeWidth=1;fillColor=none;align=left;verticalAlign=middle;spacingTop=-1;spacingLeft=3;spacingRight=3;rotatable=0;labelPosition=right;points=[];portConstraint=eastwest;strokeColor=inherit;" parent="EJYcgfiYVMfYpFsEXXHh-1" vertex="1">
          <mxGeometry y="40" width="330" height="8" as="geometry" />
        </mxCell>
        <mxCell id="EJYcgfiYVMfYpFsEXXHh-3" value="+ hasPermission(): bool" style="text;strokeColor=none;fillColor=none;align=left;verticalAlign=top;spacingLeft=4;spacingRight=4;overflow=hidden;rotatable=0;points=[[0,0.5],[1,0.5]];portConstraint=eastwest;whiteSpace=wrap;html=1;" parent="EJYcgfiYVMfYpFsEXXHh-1" vertex="1">
          <mxGeometry y="48" width="330" height="32" as="geometry" />
        </mxCell>
        <mxCell id="EJYcgfiYVMfYpFsEXXHh-26" value="+ addPermission(): void" style="text;strokeColor=none;fillColor=none;align=left;verticalAlign=top;spacingLeft=4;spacingRight=4;overflow=hidden;rotatable=0;points=[[0,0.5],[1,0.5]];portConstraint=eastwest;whiteSpace=wrap;html=1;" parent="EJYcgfiYVMfYpFsEXXHh-1" vertex="1">
          <mxGeometry y="80" width="330" height="26" as="geometry" />
        </mxCell>
        <mxCell id="EJYcgfiYVMfYpFsEXXHh-27" value="+ removePermission(): void" style="text;strokeColor=none;fillColor=none;align=left;verticalAlign=top;spacingLeft=4;spacingRight=4;overflow=hidden;rotatable=0;points=[[0,0.5],[1,0.5]];portConstraint=eastwest;whiteSpace=wrap;html=1;" parent="EJYcgfiYVMfYpFsEXXHh-1" vertex="1">
          <mxGeometry y="106" width="330" height="44" as="geometry" />
        </mxCell>
        <mxCell id="EJYcgfiYVMfYpFsEXXHh-34" style="edgeStyle=orthogonalEdgeStyle;rounded=0;orthogonalLoop=1;jettySize=auto;html=1;exitX=0.5;exitY=1;exitDx=0;exitDy=0;entryX=0.75;entryY=0;entryDx=0;entryDy=0;dashed=1;" parent="1" source="EJYcgfiYVMfYpFsEXXHh-9" target="EJYcgfiYVMfYpFsEXXHh-13" edge="1">
          <mxGeometry relative="1" as="geometry">
            <Array as="points">
              <mxPoint x="-443" y="-186" />
              <mxPoint x="-443" y="188" />
            </Array>
          </mxGeometry>
        </mxCell>
        <mxCell id="EJYcgfiYVMfYpFsEXXHh-35" value="&amp;lt;&amp;lt;use&amp;gt;&amp;gt;" style="edgeLabel;html=1;align=center;verticalAlign=middle;resizable=0;points=[];" parent="EJYcgfiYVMfYpFsEXXHh-34" vertex="1" connectable="0">
          <mxGeometry x="-0.8455" y="-1" relative="1" as="geometry">
            <mxPoint y="-1" as="offset" />
          </mxGeometry>
        </mxCell>
        <mxCell id="EJYcgfiYVMfYpFsEXXHh-9" value="&lt;p style=&quot;margin:0px;margin-top:4px;text-align:center;&quot;&gt;&lt;b&gt;PermissionManager&lt;/b&gt;&lt;/p&gt;&lt;hr size=&quot;1&quot; style=&quot;border-style:solid;&quot;&gt;&lt;div style=&quot;height:2px;&quot;&gt;&lt;/div&gt;" style="verticalAlign=top;align=left;overflow=fill;html=1;whiteSpace=wrap;" parent="1" vertex="1">
          <mxGeometry x="-620" y="-298" width="330" height="60" as="geometry" />
        </mxCell>
        <mxCell id="EJYcgfiYVMfYpFsEXXHh-12" value="&lt;font style=&quot;font-size: 30px;&quot;&gt;Permission&lt;/font&gt;" style="shape=umlFrame;whiteSpace=wrap;html=1;pointerEvents=0;width=240;height=90;" parent="1" vertex="1">
          <mxGeometry x="-740" y="454" width="440" height="686" as="geometry" />
        </mxCell>
        <mxCell id="EJYcgfiYVMfYpFsEXXHh-13" value="&lt;span style=&quot;font-weight: 400;&quot;&gt;PermissionManager&lt;/span&gt;&lt;div&gt;&lt;/div&gt;" style="swimlane;fontStyle=1;align=center;verticalAlign=top;childLayout=stackLayout;horizontal=1;startSize=40;horizontalStack=0;resizeParent=1;resizeParentMax=0;resizeLast=0;collapsible=1;marginBottom=0;whiteSpace=wrap;html=1;" parent="1" vertex="1">
          <mxGeometry x="-690" y="562" width="330" height="178" as="geometry" />
        </mxCell>
        <mxCell id="EJYcgfiYVMfYpFsEXXHh-14" value="- actionPermissionCollection:" style="text;strokeColor=none;fillColor=none;align=left;verticalAlign=top;spacingLeft=4;spacingRight=4;overflow=hidden;rotatable=0;points=[[0,0.5],[1,0.5]];portConstraint=eastwest;whiteSpace=wrap;html=1;" parent="EJYcgfiYVMfYpFsEXXHh-13" vertex="1">
          <mxGeometry y="40" width="330" height="26" as="geometry" />
        </mxCell>
        <mxCell id="EJYcgfiYVMfYpFsEXXHh-28" value="- UserStorePermissionCollection" style="text;strokeColor=none;fillColor=none;align=left;verticalAlign=top;spacingLeft=4;spacingRight=4;overflow=hidden;rotatable=0;points=[[0,0.5],[1,0.5]];portConstraint=eastwest;whiteSpace=wrap;html=1;" parent="EJYcgfiYVMfYpFsEXXHh-13" vertex="1">
          <mxGeometry y="66" width="330" height="26" as="geometry" />
        </mxCell>
        <mxCell id="EJYcgfiYVMfYpFsEXXHh-15" value="" style="line;strokeWidth=1;fillColor=none;align=left;verticalAlign=middle;spacingTop=-1;spacingLeft=3;spacingRight=3;rotatable=0;labelPosition=right;points=[];portConstraint=eastwest;strokeColor=inherit;" parent="EJYcgfiYVMfYpFsEXXHh-13" vertex="1">
          <mxGeometry y="92" width="330" height="8" as="geometry" />
        </mxCell>
        <mxCell id="EJYcgfiYVMfYpFsEXXHh-16" value="+ hasPermission(): bool" style="text;strokeColor=none;fillColor=none;align=left;verticalAlign=top;spacingLeft=4;spacingRight=4;overflow=hidden;rotatable=0;points=[[0,0.5],[1,0.5]];portConstraint=eastwest;whiteSpace=wrap;html=1;" parent="EJYcgfiYVMfYpFsEXXHh-13" vertex="1">
          <mxGeometry y="100" width="330" height="26" as="geometry" />
        </mxCell>
        <mxCell id="EJYcgfiYVMfYpFsEXXHh-22" value="+ addPermission(): void" style="text;strokeColor=none;fillColor=none;align=left;verticalAlign=top;spacingLeft=4;spacingRight=4;overflow=hidden;rotatable=0;points=[[0,0.5],[1,0.5]];portConstraint=eastwest;whiteSpace=wrap;html=1;" parent="EJYcgfiYVMfYpFsEXXHh-13" vertex="1">
          <mxGeometry y="126" width="330" height="26" as="geometry" />
        </mxCell>
        <mxCell id="EJYcgfiYVMfYpFsEXXHh-23" value="+ removePermission(): void" style="text;strokeColor=none;fillColor=none;align=left;verticalAlign=top;spacingLeft=4;spacingRight=4;overflow=hidden;rotatable=0;points=[[0,0.5],[1,0.5]];portConstraint=eastwest;whiteSpace=wrap;html=1;" parent="EJYcgfiYVMfYpFsEXXHh-13" vertex="1">
          <mxGeometry y="152" width="330" height="26" as="geometry" />
        </mxCell>
        <mxCell id="dmk8mRthHvPTzcBqkzeC-24" value="&lt;span style=&quot;font-weight: normal;&quot;&gt;&amp;lt;&amp;lt;interface&amp;gt;&amp;gt;&lt;/span&gt;&lt;div&gt;IMarketService&lt;/div&gt;" style="swimlane;fontStyle=1;align=center;verticalAlign=top;childLayout=stackLayout;horizontal=1;startSize=40;horizontalStack=0;resizeParent=1;resizeParentMax=0;resizeLast=0;collapsible=1;marginBottom=0;whiteSpace=wrap;html=1;" vertex="1" parent="1">
          <mxGeometry x="954" y="-720" width="330" height="620" as="geometry" />
        </mxCell>
        <mxCell id="dmk8mRthHvPTzcBqkzeC-25" value="" style="line;strokeWidth=1;fillColor=none;align=left;verticalAlign=middle;spacingTop=-1;spacingLeft=3;spacingRight=3;rotatable=0;labelPosition=right;points=[];portConstraint=eastwest;strokeColor=inherit;" vertex="1" parent="dmk8mRthHvPTzcBqkzeC-24">
          <mxGeometry y="40" width="330" height="8" as="geometry" />
        </mxCell>
        <mxCell id="dmk8mRthHvPTzcBqkzeC-26" value="+ addProduct(): void" style="text;strokeColor=none;fillColor=none;align=left;verticalAlign=top;spacingLeft=4;spacingRight=4;overflow=hidden;rotatable=0;points=[[0,0.5],[1,0.5]];portConstraint=eastwest;whiteSpace=wrap;html=1;" vertex="1" parent="dmk8mRthHvPTzcBqkzeC-24">
          <mxGeometry y="48" width="330" height="26" as="geometry" />
        </mxCell>
        <mxCell id="dmk8mRthHvPTzcBqkzeC-27" value="+ editProfuct(): void" style="text;strokeColor=none;fillColor=none;align=left;verticalAlign=top;spacingLeft=4;spacingRight=4;overflow=hidden;rotatable=0;points=[[0,0.5],[1,0.5]];portConstraint=eastwest;whiteSpace=wrap;html=1;" vertex="1" parent="dmk8mRthHvPTzcBqkzeC-24">
          <mxGeometry y="74" width="330" height="26" as="geometry" />
        </mxCell>
        <mxCell id="dmk8mRthHvPTzcBqkzeC-28" value="+ removeStaffMember(): void" style="text;strokeColor=none;fillColor=none;align=left;verticalAlign=top;spacingLeft=4;spacingRight=4;overflow=hidden;rotatable=0;points=[[0,0.5],[1,0.5]];portConstraint=eastwest;whiteSpace=wrap;html=1;" vertex="1" parent="dmk8mRthHvPTzcBqkzeC-24">
          <mxGeometry y="100" width="330" height="26" as="geometry" />
        </mxCell>
        <mxCell id="dmk8mRthHvPTzcBqkzeC-29" value="+ addManger(): void" style="text;strokeColor=none;fillColor=none;align=left;verticalAlign=top;spacingLeft=4;spacingRight=4;overflow=hidden;rotatable=0;points=[[0,0.5],[1,0.5]];portConstraint=eastwest;whiteSpace=wrap;html=1;" vertex="1" parent="dmk8mRthHvPTzcBqkzeC-24">
          <mxGeometry y="126" width="330" height="26" as="geometry" />
        </mxCell>
        <mxCell id="dmk8mRthHvPTzcBqkzeC-44" value="+ removeManger(): void" style="text;strokeColor=none;fillColor=none;align=left;verticalAlign=top;spacingLeft=4;spacingRight=4;overflow=hidden;rotatable=0;points=[[0,0.5],[1,0.5]];portConstraint=eastwest;whiteSpace=wrap;html=1;" vertex="1" parent="dmk8mRthHvPTzcBqkzeC-24">
          <mxGeometry y="152" width="330" height="26" as="geometry" />
        </mxCell>
        <mxCell id="dmk8mRthHvPTzcBqkzeC-43" value="+ addOwner(): void" style="text;strokeColor=none;fillColor=none;align=left;verticalAlign=top;spacingLeft=4;spacingRight=4;overflow=hidden;rotatable=0;points=[[0,0.5],[1,0.5]];portConstraint=eastwest;whiteSpace=wrap;html=1;" vertex="1" parent="dmk8mRthHvPTzcBqkzeC-24">
          <mxGeometry y="178" width="330" height="26" as="geometry" />
        </mxCell>
        <mxCell id="dmk8mRthHvPTzcBqkzeC-45" value="+ removeOwner():void" style="text;strokeColor=none;fillColor=none;align=left;verticalAlign=top;spacingLeft=4;spacingRight=4;overflow=hidden;rotatable=0;points=[[0,0.5],[1,0.5]];portConstraint=eastwest;whiteSpace=wrap;html=1;" vertex="1" parent="dmk8mRthHvPTzcBqkzeC-24">
          <mxGeometry y="204" width="330" height="26" as="geometry" />
        </mxCell>
        <mxCell id="dmk8mRthHvPTzcBqkzeC-47" value="+ getOwners:()" style="text;strokeColor=none;fillColor=none;align=left;verticalAlign=top;spacingLeft=4;spacingRight=4;overflow=hidden;rotatable=0;points=[[0,0.5],[1,0.5]];portConstraint=eastwest;whiteSpace=wrap;html=1;" vertex="1" parent="dmk8mRthHvPTzcBqkzeC-24">
          <mxGeometry y="230" width="330" height="26" as="geometry" />
        </mxCell>
        <mxCell id="dmk8mRthHvPTzcBqkzeC-46" value="+getMangers():" style="text;strokeColor=none;fillColor=none;align=left;verticalAlign=top;spacingLeft=4;spacingRight=4;overflow=hidden;rotatable=0;points=[[0,0.5],[1,0.5]];portConstraint=eastwest;whiteSpace=wrap;html=1;" vertex="1" parent="dmk8mRthHvPTzcBqkzeC-24">
          <mxGeometry y="256" width="330" height="26" as="geometry" />
        </mxCell>
        <mxCell id="dmk8mRthHvPTzcBqkzeC-30" value="+getFounder():" style="text;strokeColor=none;fillColor=none;align=left;verticalAlign=top;spacingLeft=4;spacingRight=4;overflow=hidden;rotatable=0;points=[[0,0.5],[1,0.5]];portConstraint=eastwest;whiteSpace=wrap;html=1;" vertex="1" parent="dmk8mRthHvPTzcBqkzeC-24">
          <mxGeometry y="282" width="330" height="26" as="geometry" />
        </mxCell>
        <mxCell id="dmk8mRthHvPTzcBqkzeC-31" value="+ purchaseCart(): bool" style="text;strokeColor=none;fillColor=none;align=left;verticalAlign=top;spacingLeft=4;spacingRight=4;overflow=hidden;rotatable=0;points=[[0,0.5],[1,0.5]];portConstraint=eastwest;whiteSpace=wrap;html=1;" vertex="1" parent="dmk8mRthHvPTzcBqkzeC-24">
          <mxGeometry y="308" width="330" height="26" as="geometry" />
        </mxCell>
        <mxCell id="dmk8mRthHvPTzcBqkzeC-32" value="+ updateProductQuantity(): void" style="text;strokeColor=none;fillColor=none;align=left;verticalAlign=top;spacingLeft=4;spacingRight=4;overflow=hidden;rotatable=0;points=[[0,0.5],[1,0.5]];portConstraint=eastwest;whiteSpace=wrap;html=1;" vertex="1" parent="dmk8mRthHvPTzcBqkzeC-24">
          <mxGeometry y="334" width="330" height="26" as="geometry" />
        </mxCell>
        <mxCell id="dmk8mRthHvPTzcBqkzeC-33" value="+ updateProductPrice(): void" style="text;strokeColor=none;fillColor=none;align=left;verticalAlign=top;spacingLeft=4;spacingRight=4;overflow=hidden;rotatable=0;points=[[0,0.5],[1,0.5]];portConstraint=eastwest;whiteSpace=wrap;html=1;" vertex="1" parent="dmk8mRthHvPTzcBqkzeC-24">
          <mxGeometry y="360" width="330" height="26" as="geometry" />
        </mxCell>
        <mxCell id="dmk8mRthHvPTzcBqkzeC-34" value="+ closeStrore(): void" style="text;strokeColor=none;fillColor=none;align=left;verticalAlign=top;spacingLeft=4;spacingRight=4;overflow=hidden;rotatable=0;points=[[0,0.5],[1,0.5]];portConstraint=eastwest;whiteSpace=wrap;html=1;" vertex="1" parent="dmk8mRthHvPTzcBqkzeC-24">
          <mxGeometry y="386" width="330" height="26" as="geometry" />
        </mxCell>
        <mxCell id="dmk8mRthHvPTzcBqkzeC-35" value="+ openStore(): void" style="text;strokeColor=none;fillColor=none;align=left;verticalAlign=top;spacingLeft=4;spacingRight=4;overflow=hidden;rotatable=0;points=[[0,0.5],[1,0.5]];portConstraint=eastwest;whiteSpace=wrap;html=1;" vertex="1" parent="dmk8mRthHvPTzcBqkzeC-24">
          <mxGeometry y="412" width="330" height="26" as="geometry" />
        </mxCell>
        <mxCell id="dmk8mRthHvPTzcBqkzeC-36" value="+ isAvailable(): bool" style="text;strokeColor=none;fillColor=none;align=left;verticalAlign=top;spacingLeft=4;spacingRight=4;overflow=hidden;rotatable=0;points=[[0,0.5],[1,0.5]];portConstraint=eastwest;whiteSpace=wrap;html=1;" vertex="1" parent="dmk8mRthHvPTzcBqkzeC-24">
          <mxGeometry y="438" width="330" height="26" as="geometry" />
        </mxCell>
        <mxCell id="dmk8mRthHvPTzcBqkzeC-37" value="+ updateQuantity(): void" style="text;strokeColor=none;fillColor=none;align=left;verticalAlign=top;spacingLeft=4;spacingRight=4;overflow=hidden;rotatable=0;points=[[0,0.5],[1,0.5]];portConstraint=eastwest;whiteSpace=wrap;html=1;" vertex="1" parent="dmk8mRthHvPTzcBqkzeC-24">
          <mxGeometry y="464" width="330" height="26" as="geometry" />
        </mxCell>
        <mxCell id="dmk8mRthHvPTzcBqkzeC-38" value="+ calculateTotalPrice(): double" style="text;strokeColor=none;fillColor=none;align=left;verticalAlign=top;spacingLeft=4;spacingRight=4;overflow=hidden;rotatable=0;points=[[0,0.5],[1,0.5]];portConstraint=eastwest;whiteSpace=wrap;html=1;" vertex="1" parent="dmk8mRthHvPTzcBqkzeC-24">
          <mxGeometry y="490" width="330" height="26" as="geometry" />
        </mxCell>
        <mxCell id="dmk8mRthHvPTzcBqkzeC-39" value="+ removeProduct(): void" style="text;strokeColor=none;fillColor=none;align=left;verticalAlign=top;spacingLeft=4;spacingRight=4;overflow=hidden;rotatable=0;points=[[0,0.5],[1,0.5]];portConstraint=eastwest;whiteSpace=wrap;html=1;" vertex="1" parent="dmk8mRthHvPTzcBqkzeC-24">
          <mxGeometry y="516" width="330" height="26" as="geometry" />
        </mxCell>
        <mxCell id="dmk8mRthHvPTzcBqkzeC-40" value="+ createStore(): void" style="text;strokeColor=none;fillColor=none;align=left;verticalAlign=top;spacingLeft=4;spacingRight=4;overflow=hidden;rotatable=0;points=[[0,0.5],[1,0.5]];portConstraint=eastwest;whiteSpace=wrap;html=1;" vertex="1" parent="dmk8mRthHvPTzcBqkzeC-24">
          <mxGeometry y="542" width="330" height="26" as="geometry" />
        </mxCell>
        <mxCell id="dmk8mRthHvPTzcBqkzeC-42" value="+ getPurchaseHistory(): List" style="text;strokeColor=none;fillColor=none;align=left;verticalAlign=top;spacingLeft=4;spacingRight=4;overflow=hidden;rotatable=0;points=[[0,0.5],[1,0.5]];portConstraint=eastwest;whiteSpace=wrap;html=1;" vertex="1" parent="dmk8mRthHvPTzcBqkzeC-24">
          <mxGeometry y="568" width="330" height="26" as="geometry" />
        </mxCell>
        <mxCell id="dmk8mRthHvPTzcBqkzeC-41" value="+ editPurchasePolicy():" style="text;strokeColor=none;fillColor=none;align=left;verticalAlign=top;spacingLeft=4;spacingRight=4;overflow=hidden;rotatable=0;points=[[0,0.5],[1,0.5]];portConstraint=eastwest;whiteSpace=wrap;html=1;" vertex="1" parent="dmk8mRthHvPTzcBqkzeC-24">
          <mxGeometry y="594" width="330" height="26" as="geometry" />
        </mxCell>
        <mxCell id="dmk8mRthHvPTzcBqkzeC-48" value="&lt;span style=&quot;font-weight: normal;&quot;&gt;&amp;lt;&amp;lt;interface&amp;gt;&amp;gt;&lt;/span&gt;&lt;div&gt;IMarketService&lt;/div&gt;" style="swimlane;fontStyle=1;align=center;verticalAlign=top;childLayout=stackLayout;horizontal=1;startSize=40;horizontalStack=0;resizeParent=1;resizeParentMax=0;resizeLast=0;collapsible=1;marginBottom=0;whiteSpace=wrap;html=1;" vertex="1" parent="1">
          <mxGeometry x="1130" y="275" width="330" height="620" as="geometry" />
        </mxCell>
        <mxCell id="dmk8mRthHvPTzcBqkzeC-49" value="" style="line;strokeWidth=1;fillColor=none;align=left;verticalAlign=middle;spacingTop=-1;spacingLeft=3;spacingRight=3;rotatable=0;labelPosition=right;points=[];portConstraint=eastwest;strokeColor=inherit;" vertex="1" parent="dmk8mRthHvPTzcBqkzeC-48">
          <mxGeometry y="40" width="330" height="8" as="geometry" />
        </mxCell>
        <mxCell id="dmk8mRthHvPTzcBqkzeC-50" value="+ addProduct(): void" style="text;strokeColor=none;fillColor=none;align=left;verticalAlign=top;spacingLeft=4;spacingRight=4;overflow=hidden;rotatable=0;points=[[0,0.5],[1,0.5]];portConstraint=eastwest;whiteSpace=wrap;html=1;" vertex="1" parent="dmk8mRthHvPTzcBqkzeC-48">
          <mxGeometry y="48" width="330" height="26" as="geometry" />
        </mxCell>
        <mxCell id="dmk8mRthHvPTzcBqkzeC-51" value="+ editProfuct(): void" style="text;strokeColor=none;fillColor=none;align=left;verticalAlign=top;spacingLeft=4;spacingRight=4;overflow=hidden;rotatable=0;points=[[0,0.5],[1,0.5]];portConstraint=eastwest;whiteSpace=wrap;html=1;" vertex="1" parent="dmk8mRthHvPTzcBqkzeC-48">
          <mxGeometry y="74" width="330" height="26" as="geometry" />
        </mxCell>
        <mxCell id="dmk8mRthHvPTzcBqkzeC-52" value="+ removeStaffMember(): void" style="text;strokeColor=none;fillColor=none;align=left;verticalAlign=top;spacingLeft=4;spacingRight=4;overflow=hidden;rotatable=0;points=[[0,0.5],[1,0.5]];portConstraint=eastwest;whiteSpace=wrap;html=1;" vertex="1" parent="dmk8mRthHvPTzcBqkzeC-48">
          <mxGeometry y="100" width="330" height="26" as="geometry" />
        </mxCell>
        <mxCell id="dmk8mRthHvPTzcBqkzeC-53" value="+ addManger(): void" style="text;strokeColor=none;fillColor=none;align=left;verticalAlign=top;spacingLeft=4;spacingRight=4;overflow=hidden;rotatable=0;points=[[0,0.5],[1,0.5]];portConstraint=eastwest;whiteSpace=wrap;html=1;" vertex="1" parent="dmk8mRthHvPTzcBqkzeC-48">
          <mxGeometry y="126" width="330" height="26" as="geometry" />
        </mxCell>
        <mxCell id="dmk8mRthHvPTzcBqkzeC-54" value="+ removeManger(): void" style="text;strokeColor=none;fillColor=none;align=left;verticalAlign=top;spacingLeft=4;spacingRight=4;overflow=hidden;rotatable=0;points=[[0,0.5],[1,0.5]];portConstraint=eastwest;whiteSpace=wrap;html=1;" vertex="1" parent="dmk8mRthHvPTzcBqkzeC-48">
          <mxGeometry y="152" width="330" height="26" as="geometry" />
        </mxCell>
        <mxCell id="dmk8mRthHvPTzcBqkzeC-55" value="+ addOwner(): void" style="text;strokeColor=none;fillColor=none;align=left;verticalAlign=top;spacingLeft=4;spacingRight=4;overflow=hidden;rotatable=0;points=[[0,0.5],[1,0.5]];portConstraint=eastwest;whiteSpace=wrap;html=1;" vertex="1" parent="dmk8mRthHvPTzcBqkzeC-48">
          <mxGeometry y="178" width="330" height="26" as="geometry" />
        </mxCell>
        <mxCell id="dmk8mRthHvPTzcBqkzeC-56" value="+ removeOwner():void" style="text;strokeColor=none;fillColor=none;align=left;verticalAlign=top;spacingLeft=4;spacingRight=4;overflow=hidden;rotatable=0;points=[[0,0.5],[1,0.5]];portConstraint=eastwest;whiteSpace=wrap;html=1;" vertex="1" parent="dmk8mRthHvPTzcBqkzeC-48">
          <mxGeometry y="204" width="330" height="26" as="geometry" />
        </mxCell>
        <mxCell id="dmk8mRthHvPTzcBqkzeC-57" value="+ getOwners:()" style="text;strokeColor=none;fillColor=none;align=left;verticalAlign=top;spacingLeft=4;spacingRight=4;overflow=hidden;rotatable=0;points=[[0,0.5],[1,0.5]];portConstraint=eastwest;whiteSpace=wrap;html=1;" vertex="1" parent="dmk8mRthHvPTzcBqkzeC-48">
          <mxGeometry y="230" width="330" height="26" as="geometry" />
        </mxCell>
        <mxCell id="dmk8mRthHvPTzcBqkzeC-58" value="+getMangers():" style="text;strokeColor=none;fillColor=none;align=left;verticalAlign=top;spacingLeft=4;spacingRight=4;overflow=hidden;rotatable=0;points=[[0,0.5],[1,0.5]];portConstraint=eastwest;whiteSpace=wrap;html=1;" vertex="1" parent="dmk8mRthHvPTzcBqkzeC-48">
          <mxGeometry y="256" width="330" height="26" as="geometry" />
        </mxCell>
        <mxCell id="dmk8mRthHvPTzcBqkzeC-59" value="+getFounder():" style="text;strokeColor=none;fillColor=none;align=left;verticalAlign=top;spacingLeft=4;spacingRight=4;overflow=hidden;rotatable=0;points=[[0,0.5],[1,0.5]];portConstraint=eastwest;whiteSpace=wrap;html=1;" vertex="1" parent="dmk8mRthHvPTzcBqkzeC-48">
          <mxGeometry y="282" width="330" height="26" as="geometry" />
        </mxCell>
        <mxCell id="dmk8mRthHvPTzcBqkzeC-60" value="+ purchaseCart(): bool" style="text;strokeColor=none;fillColor=none;align=left;verticalAlign=top;spacingLeft=4;spacingRight=4;overflow=hidden;rotatable=0;points=[[0,0.5],[1,0.5]];portConstraint=eastwest;whiteSpace=wrap;html=1;" vertex="1" parent="dmk8mRthHvPTzcBqkzeC-48">
          <mxGeometry y="308" width="330" height="26" as="geometry" />
        </mxCell>
        <mxCell id="dmk8mRthHvPTzcBqkzeC-61" value="+ updateProductQuantity(): void" style="text;strokeColor=none;fillColor=none;align=left;verticalAlign=top;spacingLeft=4;spacingRight=4;overflow=hidden;rotatable=0;points=[[0,0.5],[1,0.5]];portConstraint=eastwest;whiteSpace=wrap;html=1;" vertex="1" parent="dmk8mRthHvPTzcBqkzeC-48">
          <mxGeometry y="334" width="330" height="26" as="geometry" />
        </mxCell>
        <mxCell id="dmk8mRthHvPTzcBqkzeC-62" value="+ updateProductPrice(): void" style="text;strokeColor=none;fillColor=none;align=left;verticalAlign=top;spacingLeft=4;spacingRight=4;overflow=hidden;rotatable=0;points=[[0,0.5],[1,0.5]];portConstraint=eastwest;whiteSpace=wrap;html=1;" vertex="1" parent="dmk8mRthHvPTzcBqkzeC-48">
          <mxGeometry y="360" width="330" height="26" as="geometry" />
        </mxCell>
        <mxCell id="dmk8mRthHvPTzcBqkzeC-63" value="+ closeStrore(): void" style="text;strokeColor=none;fillColor=none;align=left;verticalAlign=top;spacingLeft=4;spacingRight=4;overflow=hidden;rotatable=0;points=[[0,0.5],[1,0.5]];portConstraint=eastwest;whiteSpace=wrap;html=1;" vertex="1" parent="dmk8mRthHvPTzcBqkzeC-48">
          <mxGeometry y="386" width="330" height="26" as="geometry" />
        </mxCell>
        <mxCell id="dmk8mRthHvPTzcBqkzeC-64" value="+ openStore(): void" style="text;strokeColor=none;fillColor=none;align=left;verticalAlign=top;spacingLeft=4;spacingRight=4;overflow=hidden;rotatable=0;points=[[0,0.5],[1,0.5]];portConstraint=eastwest;whiteSpace=wrap;html=1;" vertex="1" parent="dmk8mRthHvPTzcBqkzeC-48">
          <mxGeometry y="412" width="330" height="26" as="geometry" />
        </mxCell>
        <mxCell id="dmk8mRthHvPTzcBqkzeC-65" value="+ isAvailable(): bool" style="text;strokeColor=none;fillColor=none;align=left;verticalAlign=top;spacingLeft=4;spacingRight=4;overflow=hidden;rotatable=0;points=[[0,0.5],[1,0.5]];portConstraint=eastwest;whiteSpace=wrap;html=1;" vertex="1" parent="dmk8mRthHvPTzcBqkzeC-48">
          <mxGeometry y="438" width="330" height="26" as="geometry" />
        </mxCell>
        <mxCell id="dmk8mRthHvPTzcBqkzeC-66" value="+ updateQuantity(): void" style="text;strokeColor=none;fillColor=none;align=left;verticalAlign=top;spacingLeft=4;spacingRight=4;overflow=hidden;rotatable=0;points=[[0,0.5],[1,0.5]];portConstraint=eastwest;whiteSpace=wrap;html=1;" vertex="1" parent="dmk8mRthHvPTzcBqkzeC-48">
          <mxGeometry y="464" width="330" height="26" as="geometry" />
        </mxCell>
        <mxCell id="dmk8mRthHvPTzcBqkzeC-67" value="+ calculateTotalPrice(): double" style="text;strokeColor=none;fillColor=none;align=left;verticalAlign=top;spacingLeft=4;spacingRight=4;overflow=hidden;rotatable=0;points=[[0,0.5],[1,0.5]];portConstraint=eastwest;whiteSpace=wrap;html=1;" vertex="1" parent="dmk8mRthHvPTzcBqkzeC-48">
          <mxGeometry y="490" width="330" height="26" as="geometry" />
        </mxCell>
        <mxCell id="dmk8mRthHvPTzcBqkzeC-68" value="+ removeProduct(): void" style="text;strokeColor=none;fillColor=none;align=left;verticalAlign=top;spacingLeft=4;spacingRight=4;overflow=hidden;rotatable=0;points=[[0,0.5],[1,0.5]];portConstraint=eastwest;whiteSpace=wrap;html=1;" vertex="1" parent="dmk8mRthHvPTzcBqkzeC-48">
          <mxGeometry y="516" width="330" height="26" as="geometry" />
        </mxCell>
        <mxCell id="dmk8mRthHvPTzcBqkzeC-69" value="+ createStore(): void" style="text;strokeColor=none;fillColor=none;align=left;verticalAlign=top;spacingLeft=4;spacingRight=4;overflow=hidden;rotatable=0;points=[[0,0.5],[1,0.5]];portConstraint=eastwest;whiteSpace=wrap;html=1;" vertex="1" parent="dmk8mRthHvPTzcBqkzeC-48">
          <mxGeometry y="542" width="330" height="26" as="geometry" />
        </mxCell>
        <mxCell id="dmk8mRthHvPTzcBqkzeC-70" value="+ getPurchaseHistory(): List" style="text;strokeColor=none;fillColor=none;align=left;verticalAlign=top;spacingLeft=4;spacingRight=4;overflow=hidden;rotatable=0;points=[[0,0.5],[1,0.5]];portConstraint=eastwest;whiteSpace=wrap;html=1;" vertex="1" parent="dmk8mRthHvPTzcBqkzeC-48">
          <mxGeometry y="568" width="330" height="26" as="geometry" />
        </mxCell>
        <mxCell id="dmk8mRthHvPTzcBqkzeC-71" value="+ editPurchasePolicy():" style="text;strokeColor=none;fillColor=none;align=left;verticalAlign=top;spacingLeft=4;spacingRight=4;overflow=hidden;rotatable=0;points=[[0,0.5],[1,0.5]];portConstraint=eastwest;whiteSpace=wrap;html=1;" vertex="1" parent="dmk8mRthHvPTzcBqkzeC-48">
          <mxGeometry y="594" width="330" height="26" as="geometry" />
        </mxCell>
        <mxCell id="dmk8mRthHvPTzcBqkzeC-72" style="edgeStyle=orthogonalEdgeStyle;rounded=0;orthogonalLoop=1;jettySize=auto;html=1;dashed=1;endArrow=open;endFill=0;" edge="1" parent="1" source="FDom4B-1fI0kme8VLFCk-157" target="FDom4B-1fI0kme8VLFCk-171">
          <mxGeometry relative="1" as="geometry">
            <Array as="points">
              <mxPoint x="1119" y="100" />
              <mxPoint x="1860" y="100" />
              <mxPoint x="1860" y="420" />
            </Array>
            <mxPoint x="1217" y="40" as="sourcePoint" />
            <mxPoint x="1198" y="1079" as="targetPoint" />
          </mxGeometry>
        </mxCell>
        <mxCell id="dmk8mRthHvPTzcBqkzeC-73" value="&amp;lt;&amp;lt;use&amp;gt;&amp;gt;" style="edgeLabel;html=1;align=center;verticalAlign=middle;resizable=0;points=[];" vertex="1" connectable="0" parent="dmk8mRthHvPTzcBqkzeC-72">
          <mxGeometry x="-0.9391" y="3" relative="1" as="geometry">
            <mxPoint y="75" as="offset" />
          </mxGeometry>
        </mxCell>
        <mxCell id="dmk8mRthHvPTzcBqkzeC-74" style="edgeStyle=orthogonalEdgeStyle;rounded=0;orthogonalLoop=1;jettySize=auto;html=1;dashed=1;endArrow=open;endFill=0;exitX=0.338;exitY=1.063;exitDx=0;exitDy=0;exitPerimeter=0;" edge="1" parent="1" source="SJU77nNtgm_mmSQfWu9N-69" target="FDom4B-1fI0kme8VLFCk-171">
          <mxGeometry relative="1" as="geometry">
            <Array as="points">
              <mxPoint x="1890" y="4" />
              <mxPoint x="1890" y="110" />
              <mxPoint x="1870" y="110" />
              <mxPoint x="1870" y="440" />
            </Array>
            <mxPoint x="1129" y="1" as="sourcePoint" />
            <mxPoint x="1980" y="650" as="targetPoint" />
          </mxGeometry>
        </mxCell>
        <mxCell id="dmk8mRthHvPTzcBqkzeC-75" value="&amp;lt;&amp;lt;use&amp;gt;&amp;gt;" style="edgeLabel;html=1;align=center;verticalAlign=middle;resizable=0;points=[];" vertex="1" connectable="0" parent="dmk8mRthHvPTzcBqkzeC-74">
          <mxGeometry x="-0.9391" y="3" relative="1" as="geometry">
            <mxPoint y="75" as="offset" />
          </mxGeometry>
        </mxCell>
        <mxCell id="dmk8mRthHvPTzcBqkzeC-76" style="edgeStyle=orthogonalEdgeStyle;rounded=0;orthogonalLoop=1;jettySize=auto;html=1;dashed=1;endArrow=open;endFill=0;entryX=1;entryY=0.5;entryDx=0;entryDy=0;" edge="1" parent="1" target="EJYcgfiYVMfYpFsEXXHh-16">
          <mxGeometry relative="1" as="geometry">
            <Array as="points">
              <mxPoint x="1129" y="110" />
              <mxPoint x="-360" y="110" />
            </Array>
            <mxPoint x="1129" y="1" as="sourcePoint" />
            <mxPoint x="1980" y="430" as="targetPoint" />
          </mxGeometry>
        </mxCell>
        <mxCell id="dmk8mRthHvPTzcBqkzeC-77" value="&amp;lt;&amp;lt;use&amp;gt;&amp;gt;" style="edgeLabel;html=1;align=center;verticalAlign=middle;resizable=0;points=[];" vertex="1" connectable="0" parent="dmk8mRthHvPTzcBqkzeC-76">
          <mxGeometry x="-0.9391" y="3" relative="1" as="geometry">
            <mxPoint y="75" as="offset" />
          </mxGeometry>
        </mxCell>
        <mxCell id="dmk8mRthHvPTzcBqkzeC-80" style="edgeStyle=orthogonalEdgeStyle;rounded=0;orthogonalLoop=1;jettySize=auto;html=1;exitX=1;exitY=0.5;exitDx=0;exitDy=0;endArrow=diamondThin;endFill=1;startSize=6;endSize=11;" edge="1" parent="1" source="FDom4B-1fI0kme8VLFCk-84" target="pJkwpibmYWs6iMc-g0Pl-82">
          <mxGeometry relative="1" as="geometry">
            <mxPoint x="1285" y="1179" as="sourcePoint" />
            <mxPoint x="1275" y="1070" as="targetPoint" />
          </mxGeometry>
        </mxCell>
        <mxCell id="dmk8mRthHvPTzcBqkzeC-81" style="edgeStyle=orthogonalEdgeStyle;rounded=0;orthogonalLoop=1;jettySize=auto;html=1;exitX=1;exitY=1;exitDx=0;exitDy=0;dashed=1;endArrow=open;endFill=0;" edge="1" parent="1" source="FDom4B-1fI0kme8VLFCk-159" target="pJkwpibmYWs6iMc-g0Pl-82">
          <mxGeometry relative="1" as="geometry">
            <mxPoint x="746" y="-186" as="sourcePoint" />
            <mxPoint x="371" y="464" as="targetPoint" />
            <Array as="points">
              <mxPoint x="901" y="-186" />
              <mxPoint x="900" y="-186" />
              <mxPoint x="900" y="200" />
              <mxPoint x="1090" y="200" />
              <mxPoint x="1090" y="1030" />
            </Array>
          </mxGeometry>
        </mxCell>
        <mxCell id="dmk8mRthHvPTzcBqkzeC-82" value="&amp;lt;&amp;lt;use&amp;gt;&amp;gt;" style="edgeLabel;html=1;align=center;verticalAlign=middle;resizable=0;points=[];" vertex="1" connectable="0" parent="dmk8mRthHvPTzcBqkzeC-81">
          <mxGeometry x="-0.9148" y="2" relative="1" as="geometry">
            <mxPoint as="offset" />
          </mxGeometry>
        </mxCell>
        <mxCell id="dmk8mRthHvPTzcBqkzeC-83" style="edgeStyle=orthogonalEdgeStyle;rounded=0;orthogonalLoop=1;jettySize=auto;html=1;exitX=0.75;exitY=1;exitDx=0;exitDy=0;dashed=1;endArrow=open;endFill=0;" edge="1" parent="1" source="FDom4B-1fI0kme8VLFCk-158" target="pJkwpibmYWs6iMc-g0Pl-82">
          <mxGeometry relative="1" as="geometry">
            <mxPoint x="325" y="-176" as="sourcePoint" />
            <mxPoint x="-17" y="574" as="targetPoint" />
            <Array as="points">
              <mxPoint x="398" y="70" />
              <mxPoint x="1050" y="70" />
              <mxPoint x="1050" y="1020" />
            </Array>
          </mxGeometry>
        </mxCell>
        <mxCell id="dmk8mRthHvPTzcBqkzeC-84" value="&amp;lt;&amp;lt;use&amp;gt;&amp;gt;" style="edgeLabel;html=1;align=center;verticalAlign=middle;resizable=0;points=[];" vertex="1" connectable="0" parent="dmk8mRthHvPTzcBqkzeC-83">
          <mxGeometry x="-0.8987" y="1" relative="1" as="geometry">
            <mxPoint as="offset" />
          </mxGeometry>
        </mxCell>
        <mxCell id="dmk8mRthHvPTzcBqkzeC-85" style="edgeStyle=orthogonalEdgeStyle;rounded=0;orthogonalLoop=1;jettySize=auto;html=1;dashed=1;endArrow=open;endFill=0;" edge="1" parent="1" target="SJU77nNtgm_mmSQfWu9N-105">
          <mxGeometry relative="1" as="geometry">
            <Array as="points">
              <mxPoint x="1129" y="110" />
              <mxPoint x="1120" y="110" />
              <mxPoint x="1120" y="120" />
              <mxPoint x="2550" y="120" />
              <mxPoint x="2550" y="1210" />
            </Array>
            <mxPoint x="1129" y="1" as="sourcePoint" />
            <mxPoint x="1980" y="430" as="targetPoint" />
          </mxGeometry>
        </mxCell>
        <mxCell id="dmk8mRthHvPTzcBqkzeC-86" value="&amp;lt;&amp;lt;use&amp;gt;&amp;gt;" style="edgeLabel;html=1;align=center;verticalAlign=middle;resizable=0;points=[];" vertex="1" connectable="0" parent="dmk8mRthHvPTzcBqkzeC-85">
          <mxGeometry x="-0.9391" y="3" relative="1" as="geometry">
            <mxPoint y="75" as="offset" />
          </mxGeometry>
        </mxCell>
        <mxCell id="dmk8mRthHvPTzcBqkzeC-87" style="edgeStyle=orthogonalEdgeStyle;rounded=0;orthogonalLoop=1;jettySize=auto;html=1;exitX=0.5;exitY=1;exitDx=0;exitDy=0;dashed=1;endArrow=open;endFill=0;" edge="1" parent="1" target="pJkwpibmYWs6iMc-g0Pl-82">
          <mxGeometry relative="1" as="geometry">
            <mxPoint x="1955" y="10" as="sourcePoint" />
            <mxPoint x="2680" y="1220" as="targetPoint" />
            <Array as="points">
              <mxPoint x="1955" y="70" />
              <mxPoint x="1500" y="70" />
              <mxPoint x="1500" y="1030" />
            </Array>
          </mxGeometry>
        </mxCell>
        <mxCell id="dmk8mRthHvPTzcBqkzeC-88" value="&amp;lt;&amp;lt;use&amp;gt;&amp;gt;" style="edgeLabel;html=1;align=center;verticalAlign=middle;resizable=0;points=[];" vertex="1" connectable="0" parent="dmk8mRthHvPTzcBqkzeC-87">
          <mxGeometry x="-0.9501" y="-1" relative="1" as="geometry">
            <mxPoint as="offset" />
          </mxGeometry>
        </mxCell>
      </root>
    </mxGraphModel>
  </diagram>
</mxfile>
